<svg width="206" height="177" viewBox="0 0 206 177" fill="none" xmlns="http://www.w3.org/2000/svg">
<g clip-path="url(#clip0_54_25736)">
<path d="M190.598 160.742C183.849 166.521 175.626 172.376 167.541 175.136C165.21 175.956 162.806 176.479 160.371 176.696C158.096 176.902 155.805 176.702 153.585 176.104C147.75 174.472 142.338 171.614 137.102 168.275C135.391 167.183 133.7 166.04 132.019 164.873C129.274 162.966 126.557 160.992 123.833 159.066C123.425 158.774 123.019 158.487 122.611 158.204H122.609C121.951 157.74 121.292 157.282 120.631 156.831C120.515 156.75 120.399 156.672 120.28 156.591C119.031 155.741 117.762 154.91 116.47 154.098C116.312 154.001 116.154 153.9 115.995 153.803C113.497 152.245 110.929 150.832 108.302 149.569C106.576 148.752 104.828 148.015 103.063 147.387H103.06C102.385 147.148 101.708 146.923 101.028 146.717C98.9893 146.088 96.9117 145.631 94.8125 145.349C91.9199 144.956 88.9942 144.982 86.1075 145.427C85.9122 145.458 85.7193 145.488 85.524 145.525C77.7114 146.931 70.5812 151.674 62.7341 152.791C62.4794 152.827 62.2272 152.861 61.9726 152.886C61.8638 152.897 61.755 152.911 61.6462 152.919C59.3658 153.139 57.0709 153.075 54.8028 152.73C48.4662 151.791 42.2953 148.874 36.74 145.199C23.7528 136.607 13.2207 123.399 6.81738 108.104C5.71779 105.483 4.74152 102.798 3.89262 100.062C1.51917 92.4731 0.212096 84.5151 0.0184716 76.4739C-0.582305 48.5746 13.5174 20.5835 35.6546 7.96542C57.7943 -4.65267 86.9184 -0.479998 104.774 18.9044C115.605 30.6635 121.872 46.5981 130.023 60.8341C138.175 75.0673 149.76 88.6639 164.703 90.7377C172.315 91.7941 180.281 89.7509 187.577 92.4085C191.617 93.8818 195.063 96.7007 197.839 100.292C199.706 102.73 201.268 105.442 202.483 108.354C203.372 110.459 204.095 112.649 204.641 114.898C204.742 115.312 204.836 115.727 204.928 116.141C208.562 132.831 202.754 150.328 190.598 160.742Z" fill="#F2F2F2"/>
<path d="M69.019 130.527H45.779C42.2972 130.527 39.4746 133.701 39.4746 137.616V137.616C39.4746 141.531 42.2972 144.704 45.779 144.704H69.019C72.5008 144.704 75.3234 141.531 75.3234 137.616C75.3234 133.701 72.5008 130.527 69.019 130.527Z" fill="#3F3D56"/>
<path d="M61.9725 141.091V152.886C59.5852 153.146 57.1793 153.094 54.8027 152.73V141.091H61.9725Z" fill="#3F3D56"/>
<path d="M86.1077 145.427C85.9124 145.458 85.7195 145.488 85.5242 145.525C77.7116 146.931 70.5814 151.674 62.7343 152.791C62.4796 152.827 62.2274 152.861 61.9728 152.886C61.864 152.897 61.7552 152.911 61.6464 152.919C59.7304 150.809 57.8143 148.563 56.0145 146.236C55.0379 144.977 54.0935 143.693 53.2059 142.392C50.9017 139.033 48.9485 135.581 47.658 132.189C47.789 130.563 46.8891 126.802 46.4589 123.922L46.4564 123.919C46.2735 122.71 46.1746 121.659 46.2661 120.983C46.7902 117.086 49.621 117.533 50.4913 113.714C51.2763 112.981 52.1122 112.32 52.9908 111.737C53.1367 111.64 53.285 111.543 53.4383 111.445L62.8826 104.106L66.4922 108.087L71.9857 114.148L77.9391 120.711L72.8856 126.452C72.8856 126.452 77.1084 131.925 82.0456 139.222C83.3708 141.182 84.7479 143.276 86.1077 145.427Z" fill="#2F2E41"/>
<path d="M167.541 141.091V175.137C165.21 175.956 162.805 176.479 160.371 176.696V141.091H167.541Z" fill="#3F3D56"/>
<path d="M176.812 138.311H153.572C150.09 138.311 147.268 141.484 147.268 145.399V145.399C147.268 149.314 150.09 152.488 153.572 152.488H176.812C180.294 152.488 183.116 149.314 183.116 145.399C183.116 141.484 180.294 138.311 176.812 138.311Z" fill="#3F3D56"/>
<path d="M120.28 156.592C119.031 155.741 117.761 154.91 116.47 154.098C116.312 154.001 116.153 153.901 115.995 153.803L116.846 153.395L119.14 152.286L119.162 152.274L119.187 152.369L120.28 156.592Z" fill="#FFB6B6"/>
<path d="M123.833 159.066C123.425 158.774 123.02 158.487 122.612 158.204H122.609C121.952 157.74 121.292 157.282 120.631 156.83C120.515 156.75 120.399 156.672 120.28 156.591C119.032 155.741 117.762 154.91 116.471 154.098C116.312 154.001 116.154 153.9 115.996 153.803C113.497 152.245 110.929 150.832 108.302 149.569C106.576 148.752 104.828 148.015 103.063 147.387H103.061L101.674 144.777L95.431 133.02L94.0588 130.438C94.0588 130.438 89.3787 131.995 82.7554 133.487C80.3448 134.032 77.6797 134.566 74.8835 135.016C71.8944 135.495 68.7595 135.875 65.6444 136.059C64.1585 136.148 62.6776 136.192 61.2189 136.178C57.4486 136.151 53.8266 135.753 50.6546 134.808C49.5965 133.69 46.4072 132.17 44.1227 130.777H44.1203C43.161 130.193 42.3649 129.634 41.9471 129.137C39.539 126.274 41.596 124.041 39.455 120.917C39.4261 119.77 39.4782 118.623 39.6107 117.486C39.633 117.297 39.6552 117.105 39.6824 116.911L40.3574 104.023L45.3713 103.278L53.0009 102.144L61.2659 100.915L62.1757 108.927C62.1757 108.927 68.6112 108.56 76.7649 108.682C89.8608 108.882 107.385 110.35 109.758 116.649C109.981 117.242 110.203 117.839 110.426 118.437C110.955 119.866 111.479 121.302 111.998 122.746C113.88 127.972 115.674 133.248 117.314 138.236C118.332 141.338 119.291 144.329 120.174 147.129C120.884 149.38 121.541 151.51 122.142 153.47C122.691 155.26 123.188 156.908 123.63 158.387C123.7 158.618 123.766 158.846 123.833 159.066Z" fill="#2F2E41"/>
<path d="M77.7096 80.9809L61.873 65.8577L72.1765 54.1328L79.3648 67.3717L106.01 73.3115C106.811 72.6335 107.771 72.2323 108.771 72.1568C109.772 72.0813 110.77 72.3347 111.645 72.8861C112.519 73.4376 113.232 74.2633 113.697 75.2625C114.161 76.2618 114.357 77.3914 114.26 78.5136C114.164 79.6359 113.779 80.7023 113.153 81.5828C112.526 82.4633 111.686 83.1199 110.733 83.4725C109.781 83.8251 108.758 83.8585 107.789 83.5686C106.82 83.2787 105.947 82.678 105.276 81.8399L77.7096 80.9809Z" fill="#A0616A"/>
<path d="M47.8778 45.9821C46.0476 52.6769 63.4781 68.6441 63.4781 68.6441C63.6718 67.0368 73.5543 80.8961 74.2267 79.641C76.1376 76.0737 78.2402 67.2559 80.4462 66.1289C81.7078 65.4844 74.4704 56.5261 74.4704 56.5261C74.4704 56.5261 70.7786 51.034 65.9042 44.0736C64.5586 42.077 62.7856 40.4957 60.7502 39.4769C58.7149 38.458 56.4834 38.0348 54.2634 38.2465C54.2634 38.2465 49.708 39.2873 47.8778 45.9821Z" fill="#3F3D56"/>
<path d="M55.5842 31.1613C61.4998 31.1613 66.2953 25.7691 66.2953 19.1175C66.2953 12.4659 61.4998 7.07373 55.5842 7.07373C49.6686 7.07373 44.873 12.4659 44.873 19.1175C44.873 25.7691 49.6686 31.1613 55.5842 31.1613Z" fill="#A0616A"/>
<path d="M60.9396 39.1217C63.2472 40.6642 64.6276 43.4984 65.42 46.3825C66.887 51.722 67.7701 57.2425 68.0497 62.8221L68.8866 79.5266L79.2522 115.095C70.2687 123.642 36.5009 117.037 36.5009 117.037C36.5009 117.037 35.4644 116.649 36.5009 115.483C37.5375 114.318 38.5466 115.351 37.51 114.185C36.4735 113.019 37.188 114.318 37.5336 113.152C37.8791 111.987 37.5336 112.764 37.1881 112.375C36.8425 111.987 39.8629 108.49 39.8629 108.49L37.0988 88.0737L33.6436 46.8918C37.7898 41.0642 46.1285 37.6289 46.1285 37.6289L48.283 33.2681L59.056 34.2371L60.9396 39.1217Z" fill="#3F3D56"/>
<path d="M64.4139 12.7188C65.2464 13.417 65.8632 14.3912 66.1774 15.5042C66.2981 13.6853 66.3058 11.8591 66.2003 10.039C66.0741 8.76001 65.2733 8.47232 64.346 8.13896C63.5086 7.83779 62.5615 7.49758 62.3067 6.25596C58.9397 2.57299 53.0785 2.75871 49.0673 4.04339C46.8601 4.75032 45.59 5.65859 45.4764 6.19066L45.4529 6.30019L45.3632 6.35058C43.6619 7.30711 43.3307 10.3276 43.3526 12.693C43.394 17.1497 44.7625 22.2112 45.5334 22.6224C45.5743 22.6442 45.5846 22.6357 45.6022 22.6191C46.7631 21.576 48.1793 22.6984 48.8017 23.3085C49.1688 20.5387 50.3508 17.987 52.1589 16.0611C53.9671 14.1352 56.297 12.9462 58.7766 12.6838C59.5864 12.5958 60.3897 12.4444 61.1808 12.2306C61.582 12.1138 61.9945 12.053 62.4089 12.0493C63.1224 12.0371 63.822 12.2708 64.4139 12.7188Z" fill="#2F2E41"/>
<path d="M50.9171 99.1261L47.6405 97.2393C47.465 97.0986 47.3403 96.8917 47.2892 96.6562C47.2382 96.4207 47.2641 96.1724 47.3624 95.9567C47.4607 95.741 47.6247 95.5722 47.8244 95.4811C48.0242 95.3901 48.2465 95.3829 48.4506 95.4609L51.7271 97.3477C51.9026 97.4884 52.0273 97.6954 52.0784 97.9309C52.1295 98.1663 52.1035 98.4146 52.0052 98.6303C51.907 98.8461 51.743 99.0149 51.5432 99.1059C51.3434 99.1969 51.1212 99.2041 50.9171 99.1261L50.9171 99.1261Z" fill="#112546"/>
<path d="M39.89 94.0712L34.5 71.5087L48.9035 68.4429L48.1289 83.9296L67.0538 105.841C68.0557 105.794 69.0479 106.077 69.9094 106.654C70.7708 107.231 71.4644 108.078 71.9054 109.09C72.3465 110.103 72.516 111.238 72.3933 112.357C72.2706 113.476 71.8609 114.53 71.2144 115.392C70.5678 116.254 69.7122 116.886 68.7518 117.21C67.7915 117.535 66.768 117.538 65.806 117.219C64.8441 116.901 63.9853 116.275 63.3344 115.417C62.6835 114.56 62.2685 113.508 62.1402 112.389L39.89 94.0712Z" fill="#A0616A"/>
<path d="M33.0259 46.2116C28.1369 50.5515 34.412 74.8268 34.412 74.8268C35.3835 73.6279 36.5125 91.3465 37.7001 90.7432C41.0751 89.0285 47.2612 83.1156 49.646 83.5976C51.0099 83.8732 49.581 71.8776 49.581 71.8776C49.581 71.8776 49.3182 64.9996 48.8242 56.1576C48.7258 53.655 48.0659 51.221 46.9058 49.0823C45.7458 46.9435 44.1234 45.1696 42.1896 43.9256C42.1896 43.9256 37.915 41.8717 33.0259 46.2116Z" fill="#3F3D56"/>
<path d="M202.482 108.354L6.81733 108.104C5.71774 105.483 4.74148 102.798 3.89258 100.062L197.839 100.292C199.706 102.73 201.268 105.442 202.482 108.354Z" fill="#3F3D56"/>
<path d="M140.162 166.682C139.151 167.233 138.131 167.764 137.102 168.275C135.391 167.183 133.7 166.04 132.019 164.873L138.254 161.792L140.162 166.682Z" fill="#FFB6B6"/>
<path d="M185.624 128.375C184.61 129.904 183.565 131.402 182.487 132.87C181.493 134.224 180.473 135.552 179.426 136.854C178.993 137.393 178.556 137.93 178.108 138.461C177.285 139.453 176.443 140.429 175.584 141.388C174.036 141.936 170.901 142.9 167.541 143.801C165.096 144.454 162.532 145.074 160.372 145.469C159.162 145.713 157.938 145.86 156.71 145.908C155.251 145.922 153.771 145.877 152.285 145.789C150.608 145.688 148.93 145.533 147.271 145.333C142.957 144.824 138.778 144.032 135.174 143.217C133.853 142.922 132.612 142.622 131.47 142.33C129.307 141.783 127.497 141.271 126.187 140.882C124.711 140.448 123.87 140.167 123.87 140.167L120.174 147.128L118.256 150.74L116.846 153.394L116.47 154.098C116.312 154 116.154 153.9 115.996 153.803C113.497 152.245 110.929 150.832 108.302 149.569C106.576 148.752 104.828 148.015 103.063 147.387H103.061C102.386 147.148 101.708 146.923 101.028 146.717C101.241 146.075 101.456 145.428 101.674 144.777C102.079 143.562 102.493 142.336 102.915 141.099C103.827 138.419 104.771 135.7 105.743 132.995C106.539 130.774 107.35 128.561 108.171 126.379C108.549 125.373 109.318 124.489 110.394 123.713C110.908 123.349 111.444 123.025 111.998 122.746C115.076 121.169 119.61 120.144 124.607 119.485C125.02 119.432 125.435 119.379 125.853 119.329C129.989 118.84 134.378 118.587 138.482 118.47C140.536 118.412 142.519 118.39 144.363 118.387C144.959 118.387 145.539 118.389 146.101 118.392H146.104C147.624 118.401 149.024 118.426 150.255 118.453C150.495 118.459 150.727 118.467 150.955 118.473H150.957C151.11 118.476 151.261 118.481 151.409 118.484C154.102 118.562 155.753 118.656 155.753 118.656L156.394 113.008L156.525 111.868L156.648 110.784V110.781L156.663 110.645L156.765 110.642L158.545 110.603L173.507 110.275L181.681 110.094L180.385 116.338L178.247 126.64C178.464 128.269 185.698 126.993 185.624 128.375Z" fill="#2F2E41"/>
<path d="M142.007 165.654C141.396 166.004 140.78 166.349 140.162 166.682C139.151 167.233 138.131 167.764 137.101 168.275C135.391 167.183 133.7 166.04 132.018 164.873C129.274 162.966 126.557 160.992 123.832 159.065C123.425 158.773 123.019 158.487 122.611 158.204H122.609C121.486 156.33 120.342 154.378 119.187 152.368C119.17 152.341 119.155 152.313 119.14 152.285C118.843 151.774 118.548 151.258 118.255 150.739C116.408 147.487 114.551 144.095 112.749 140.632L117.313 138.235L125.798 133.782L127.262 133.015L131.469 142.33L135.222 150.639L136.058 152.488L142.007 165.654Z" fill="#2F2E41"/>
<path d="M143.286 120.93L164.919 97.4721L170.915 78.3824L162.071 74.0581C157.528 78.9512 152.618 94.1915 152.618 94.1915L137.731 115.487C137.615 115.532 137.499 115.579 137.385 115.636C136.714 115.968 136.132 116.49 135.693 117.149C135.254 117.809 134.974 118.585 134.879 119.402C134.785 120.219 134.88 121.05 135.154 121.814C135.429 122.578 135.874 123.249 136.447 123.763C137.02 124.277 137.701 124.616 138.424 124.748C139.148 124.879 139.889 124.798 140.576 124.514C141.264 124.229 141.875 123.749 142.349 123.122C142.824 122.494 143.147 121.739 143.286 120.93Z" fill="#FFB8B8"/>
<path d="M159.582 76.1891L170.8 80.1937L170.843 80.1857C175.018 79.3993 178.483 71.7313 180.654 65.4371C181.368 63.3611 181.355 61.0574 180.617 58.992C179.878 56.9265 178.47 55.2533 176.677 54.3106C175.349 53.6253 173.878 53.371 172.429 53.5766C170.98 53.7821 169.611 54.4393 168.477 55.4739L162.716 60.7666L159.582 76.1891Z" fill="#112546"/>
<path d="M185.579 128.657L185.645 128.559C189.145 123.339 184.358 110.413 183.634 108.539L186.888 107.455L186.321 100.487L186.048 97.3801L188.578 94.6781L188.587 94.6092L190.327 80.6838L192.604 71.4673C193.462 67.9831 193.48 64.3048 192.657 60.81C191.833 57.3153 190.197 54.13 187.916 51.5812L183.261 46.3847L177.685 36.5698L168.335 36.2983L164.972 43.0143C161.846 43.7319 159.042 45.6601 157.049 48.463C155.057 51.266 154.002 54.7661 154.069 58.3536L154.385 76.2329L151.03 98.3853L150.936 102.409L147.643 106.316L148.252 110.267L145.789 111.37L144.583 116.983C144.123 117.631 141.083 121.951 141.056 123.155C141.052 123.336 141.166 123.514 141.417 123.715C143.384 125.298 154.381 128.728 159.33 126.666C164.602 124.471 185.264 128.593 185.472 128.635L185.579 128.657Z" fill="#112546"/>
<path d="M172.193 33.2895C179.034 33.2895 184.58 27.0535 184.58 19.3611C184.58 11.6686 179.034 5.43262 172.193 5.43262C165.352 5.43262 159.806 11.6686 159.806 19.3611C159.806 27.0535 165.352 33.2895 172.193 33.2895Z" fill="#FFB8B8"/>
<path d="M170.682 33.4759C172.6 33.5095 174.518 33.3588 176.413 33.0255C178.292 32.5959 182.495 29.1327 183.666 27.0487C184.537 25.5003 185.094 23.0824 185.407 21.3268C185.83 19.0036 185.814 16.6065 185.36 14.2907C184.906 11.9749 184.025 9.79209 182.773 7.8836C182.292 7.08532 181.628 6.44809 180.852 6.03929C180.783 6.00903 180.712 5.9822 180.64 5.95927C179.509 5.62444 178.492 4.91688 177.72 3.92746C177.57 3.72733 177.408 3.53958 177.235 3.36567C176.363 2.53819 175.329 1.95451 174.218 1.66233C172.424 1.12263 169.829 1.65835 166.504 3.25616C164.833 4.05892 163.006 3.7684 161.6 3.42558C161.522 3.40846 161.44 3.41484 161.364 3.44411C161.288 3.47337 161.22 3.52449 161.167 3.59238C160.569 4.22362 159.781 4.57696 158.961 4.58138C158.459 4.60619 157.931 5.38833 157.294 6.40827C157.15 6.6398 156.981 6.91002 156.859 7.07437L156.843 6.75861L156.559 7.11086C156.112 7.66448 155.797 8.33621 155.644 9.06348C155.49 9.79075 155.503 10.5499 155.68 11.2703C155.858 11.9906 156.194 12.6488 156.659 13.1834C157.124 13.718 157.701 14.1117 158.338 14.3279C158.843 14.479 159.361 14.5718 159.883 14.6047C160.199 14.6367 160.526 14.6698 160.84 14.731C161.846 14.9627 162.781 15.4837 163.555 16.2433C164.329 17.0029 164.914 17.9751 165.253 19.0649C165.334 19.3168 165.465 19.5446 165.636 19.7307C165.807 19.9168 166.013 20.0562 166.24 20.1381C166.467 20.2201 166.707 20.2424 166.942 20.2033C167.178 20.1643 167.402 20.0649 167.598 19.9129C167.925 19.627 168.308 19.4341 168.715 19.3507C169.122 19.2673 169.541 19.2959 169.937 19.4341C170.278 19.6476 170.544 19.9867 170.69 20.3945C170.867 20.8489 171.16 21.2336 171.532 21.4997C172.805 22.2378 172.893 25.5076 172.436 28.2333C171.995 30.8607 171.124 32.7614 170.317 32.8553C169.696 32.9276 169.625 32.9772 169.58 33.1007L169.54 33.2112L169.61 33.3146C169.953 33.4545 170.318 33.5095 170.682 33.4759Z" fill="#2F2E41"/>
<path d="M162.658 71.978L157.882 61.271C150.949 61.8035 137.19 70.8165 137.19 70.8165L111.156 77.0229C110.385 76.6895 109.549 76.5905 108.733 76.7358C107.917 76.8811 107.15 77.2655 106.508 77.8504C105.866 78.4353 105.372 79.2 105.077 80.0675C104.781 80.9351 104.694 81.8749 104.824 82.7923C104.955 83.7097 105.297 84.5724 105.818 85.2935C106.339 86.0146 107.02 86.5686 107.792 86.8999C108.564 87.2312 109.4 87.3279 110.215 87.1805C111.031 87.033 111.798 86.6465 112.439 86.0599L145.555 83.3908L162.658 71.978Z" fill="#FFB8B8"/>
<path d="M160.732 73.7363L173.206 63.3131L175.403 54.4098C175.829 52.6601 175.811 50.8115 175.351 49.0728C174.891 47.334 174.008 45.7745 172.802 44.5704C171.156 42.9506 169.025 42.0937 166.84 42.173C164.654 42.2523 162.577 43.2619 161.027 44.9976C156.333 50.2659 150.979 57.6157 152.13 62.7122L152.141 62.7638L160.732 73.7363Z" fill="#112546"/>
<path d="M145.291 101.616H111.914V106.62H145.291V101.616Z" fill="white"/>
<path d="M59.9946 101.616H26.6182V106.62H59.9946V101.616Z" fill="white"/>
<path d="M63.8926 77.552V101.377C63.8928 101.681 64.0002 101.972 64.1911 102.187C64.382 102.401 64.6409 102.522 64.9109 102.522H96.3106C96.5807 102.522 96.8396 102.401 97.0305 102.187C97.2214 101.972 97.3288 101.681 97.329 101.377V77.552C97.3284 77.2487 97.2208 76.9579 97.03 76.7436C96.8391 76.5292 96.5804 76.4086 96.3106 76.4082H64.9109C64.6412 76.4086 64.3825 76.5292 64.1916 76.7436C64.0008 76.9579 63.8932 77.2487 63.8926 77.552Z" fill="#3F3D56"/>
<path d="M64.6289 77.8486V101.083C64.6292 101.246 64.6866 101.401 64.7886 101.516C64.8906 101.63 65.0289 101.695 65.1732 101.695H96.049C96.1932 101.695 96.3315 101.63 96.4335 101.516C96.5356 101.401 96.593 101.246 96.5932 101.083V77.8486C96.5932 77.6862 96.5359 77.5304 96.4339 77.4154C96.3318 77.3005 96.1934 77.2357 96.049 77.2354H65.1732C65.0287 77.2357 64.8903 77.3005 64.7883 77.4154C64.6862 77.5304 64.6289 77.6862 64.6289 77.8486Z" fill="#112546"/>
<path d="M63.2358 106.024C63.2933 106.105 63.3664 106.17 63.4496 106.215C63.5329 106.26 63.624 106.283 63.7163 106.282H97.338C97.4299 106.282 97.5207 106.259 97.6037 106.214C97.6867 106.17 97.7598 106.105 97.8177 106.025C97.8756 105.945 97.9169 105.851 97.9385 105.75C97.9602 105.65 97.9616 105.545 97.9427 105.444L97.4208 102.656C97.3992 102.543 97.3526 102.437 97.2853 102.349C97.218 102.26 97.1322 102.192 97.0356 102.151C96.9657 102.12 96.8912 102.104 96.8161 102.104H64.2361C64.161 102.104 64.0865 102.12 64.0166 102.151C63.92 102.192 63.8341 102.26 63.7668 102.349C63.6996 102.437 63.653 102.543 63.6314 102.656L63.1094 105.444C63.0909 105.545 63.0926 105.65 63.1144 105.75C63.1363 105.85 63.1777 105.944 63.2358 106.024Z" fill="#2F2E41"/>
<path d="M95.6623 103.305H96.4565C96.5231 103.305 96.5771 103.244 96.5771 103.169V102.742C96.5771 102.667 96.5231 102.607 96.4565 102.607H95.6623C95.5957 102.607 95.5416 102.667 95.5416 102.742V103.169C95.5416 103.244 95.5957 103.305 95.6623 103.305Z" fill="#3F3D56"/>
<path d="M93.591 103.305H94.3852C94.4518 103.305 94.5059 103.244 94.5059 103.169V102.742C94.5059 102.667 94.4518 102.607 94.3852 102.607H93.591C93.5244 102.607 93.4703 102.667 93.4703 102.742V103.169C93.4703 103.244 93.5244 103.305 93.591 103.305Z" fill="#3F3D56"/>
<path d="M91.5197 103.305H92.3139C92.3805 103.305 92.4346 103.244 92.4346 103.169V102.742C92.4346 102.667 92.3805 102.607 92.3139 102.607H91.5197C91.4531 102.607 91.399 102.667 91.399 102.742V103.169C91.399 103.244 91.4531 103.305 91.5197 103.305Z" fill="#3F3D56"/>
<path d="M89.4484 103.305H90.2426C90.3092 103.305 90.3633 103.244 90.3633 103.169V102.742C90.3633 102.667 90.3092 102.607 90.2426 102.607H89.4484C89.3818 102.607 89.3278 102.667 89.3278 102.742V103.169C89.3278 103.244 89.3818 103.305 89.4484 103.305Z" fill="#3F3D56"/>
<path d="M87.3781 103.305H88.1723C88.2389 103.305 88.293 103.244 88.293 103.169V102.742C88.293 102.667 88.2389 102.607 88.1723 102.607H87.3781C87.3115 102.607 87.2574 102.667 87.2574 102.742V103.169C87.2574 103.244 87.3115 103.305 87.3781 103.305Z" fill="#3F3D56"/>
<path d="M85.3068 103.305H86.101C86.1676 103.305 86.2217 103.244 86.2217 103.169V102.742C86.2217 102.667 86.1676 102.607 86.101 102.607H85.3068C85.2402 102.607 85.1862 102.667 85.1862 102.742V103.169C85.1862 103.244 85.2402 103.305 85.3068 103.305Z" fill="#3F3D56"/>
<path d="M83.2356 103.305H84.0297C84.0964 103.305 84.1504 103.244 84.1504 103.169V102.742C84.1504 102.667 84.0964 102.607 84.0297 102.607H83.2356C83.1689 102.607 83.1149 102.667 83.1149 102.742V103.169C83.1149 103.244 83.1689 103.305 83.2356 103.305Z" fill="#3F3D56"/>
<path d="M81.1643 103.305H81.9584C82.0251 103.305 82.0791 103.244 82.0791 103.169V102.742C82.0791 102.667 82.0251 102.607 81.9584 102.607H81.1643C81.0976 102.607 81.0436 102.667 81.0436 102.742V103.169C81.0436 103.244 81.0976 103.305 81.1643 103.305Z" fill="#3F3D56"/>
<path d="M79.094 103.305H79.8881C79.9548 103.305 80.0088 103.244 80.0088 103.169V102.742C80.0088 102.667 79.9548 102.607 79.8881 102.607H79.094C79.0273 102.607 78.9733 102.667 78.9733 102.742V103.169C78.9733 103.244 79.0273 103.305 79.094 103.305Z" fill="#3F3D56"/>
<path d="M77.0227 103.305H77.8168C77.8835 103.305 77.9375 103.244 77.9375 103.169V102.742C77.9375 102.667 77.8835 102.607 77.8168 102.607H77.0227C76.956 102.607 76.902 102.667 76.902 102.742V103.169C76.902 103.244 76.956 103.305 77.0227 103.305Z" fill="#3F3D56"/>
<path d="M74.9514 103.305H75.7455C75.8122 103.305 75.8662 103.244 75.8662 103.169V102.742C75.8662 102.667 75.8122 102.607 75.7455 102.607H74.9514C74.8847 102.607 74.8307 102.667 74.8307 102.742V103.169C74.8307 103.244 74.8847 103.305 74.9514 103.305Z" fill="#3F3D56"/>
<path d="M72.8801 103.305H73.6742C73.7409 103.305 73.7949 103.244 73.7949 103.169V102.742C73.7949 102.667 73.7409 102.607 73.6742 102.607H72.8801C72.8134 102.607 72.7594 102.667 72.7594 102.742V103.169C72.7594 103.244 72.8134 103.305 72.8801 103.305Z" fill="#3F3D56"/>
<path d="M70.8088 103.305H71.6029C71.6696 103.305 71.7236 103.244 71.7236 103.169V102.742C71.7236 102.667 71.6696 102.607 71.6029 102.607H70.8088C70.7421 102.607 70.6881 102.667 70.6881 102.742V103.169C70.6881 103.244 70.7421 103.305 70.8088 103.305Z" fill="#3F3D56"/>
<path d="M68.7385 103.305H69.5326C69.5993 103.305 69.6533 103.244 69.6533 103.169V102.742C69.6533 102.667 69.5993 102.607 69.5326 102.607H68.7385C68.6718 102.607 68.6178 102.667 68.6178 102.742V103.169C68.6178 103.244 68.6718 103.305 68.7385 103.305Z" fill="#3F3D56"/>
<path d="M66.6672 103.305H67.4613C67.528 103.305 67.582 103.244 67.582 103.169V102.742C67.582 102.667 67.528 102.607 67.4613 102.607H66.6672C66.6005 102.607 66.5465 102.667 66.5465 102.742V103.169C66.5465 103.244 66.6005 103.305 66.6672 103.305Z" fill="#3F3D56"/>
<path d="M64.5959 103.305H65.39C65.4567 103.305 65.5107 103.244 65.5107 103.169V102.742C65.5107 102.667 65.4567 102.607 65.39 102.607H64.5959C64.5293 102.607 64.4752 102.667 64.4752 102.742V103.169C64.4752 103.244 64.5293 103.305 64.5959 103.305Z" fill="#3F3D56"/>
<path d="M95.6867 104.469H96.4809C96.5475 104.469 96.6016 104.408 96.6016 104.334V103.906C96.6016 103.831 96.5475 103.771 96.4809 103.771H95.6867C95.6201 103.771 95.566 103.831 95.566 103.906V104.334C95.566 104.408 95.6201 104.469 95.6867 104.469Z" fill="#3F3D56"/>
<path d="M93.6154 104.469H94.4096C94.4762 104.469 94.5303 104.408 94.5303 104.334V103.906C94.5303 103.831 94.4762 103.771 94.4096 103.771H93.6154C93.5488 103.771 93.4947 103.831 93.4947 103.906V104.334C93.4947 104.408 93.5488 104.469 93.6154 104.469Z" fill="#3F3D56"/>
<path d="M91.5441 104.469H92.3383C92.4049 104.469 92.459 104.408 92.459 104.334V103.906C92.459 103.831 92.4049 103.771 92.3383 103.771H91.5441C91.4775 103.771 91.4234 103.831 91.4234 103.906V104.334C91.4234 104.408 91.4775 104.469 91.5441 104.469Z" fill="#3F3D56"/>
<path d="M89.4729 104.469H90.267C90.3337 104.469 90.3877 104.408 90.3877 104.334V103.906C90.3877 103.831 90.3337 103.771 90.267 103.771H89.4729C89.4062 103.771 89.3522 103.831 89.3522 103.906V104.334C89.3522 104.408 89.4062 104.469 89.4729 104.469Z" fill="#3F3D56"/>
<path d="M87.4025 104.469H88.1967C88.2633 104.469 88.3174 104.408 88.3174 104.334V103.906C88.3174 103.831 88.2633 103.771 88.1967 103.771H87.4025C87.3359 103.771 87.2818 103.831 87.2818 103.906V104.334C87.2818 104.408 87.3359 104.469 87.4025 104.469Z" fill="#3F3D56"/>
<path d="M85.3312 104.469H86.1254C86.1921 104.469 86.2461 104.408 86.2461 104.334V103.906C86.2461 103.831 86.1921 103.771 86.1254 103.771H85.3312C85.2646 103.771 85.2106 103.831 85.2106 103.906V104.334C85.2106 104.408 85.2646 104.469 85.3312 104.469Z" fill="#3F3D56"/>
<path d="M83.26 104.469H84.0541C84.1208 104.469 84.1748 104.408 84.1748 104.334V103.906C84.1748 103.831 84.1208 103.771 84.0541 103.771H83.26C83.1933 103.771 83.1393 103.831 83.1393 103.906V104.334C83.1393 104.408 83.1933 104.469 83.26 104.469Z" fill="#3F3D56"/>
<path d="M81.1887 104.469H81.9828C82.0495 104.469 82.1035 104.408 82.1035 104.334V103.906C82.1035 103.831 82.0495 103.771 81.9828 103.771H81.1887C81.122 103.771 81.068 103.831 81.068 103.906V104.334C81.068 104.408 81.122 104.469 81.1887 104.469Z" fill="#3F3D56"/>
<path d="M79.1184 104.469H79.9125C79.9792 104.469 80.0332 104.408 80.0332 104.334V103.906C80.0332 103.831 79.9792 103.771 79.9125 103.771H79.1184C79.0517 103.771 78.9977 103.831 78.9977 103.906V104.334C78.9977 104.408 79.0517 104.469 79.1184 104.469Z" fill="#3F3D56"/>
<path d="M77.0471 104.469H77.8412C77.9079 104.469 77.9619 104.408 77.9619 104.334V103.906C77.9619 103.831 77.9079 103.771 77.8412 103.771H77.0471C76.9804 103.771 76.9264 103.831 76.9264 103.906V104.334C76.9264 104.408 76.9804 104.469 77.0471 104.469Z" fill="#3F3D56"/>
<path d="M74.9758 104.469H75.7699C75.8366 104.469 75.8906 104.408 75.8906 104.334V103.906C75.8906 103.831 75.8366 103.771 75.7699 103.771H74.9758C74.9091 103.771 74.8551 103.831 74.8551 103.906V104.334C74.8551 104.408 74.9091 104.469 74.9758 104.469Z" fill="#3F3D56"/>
<path d="M72.9045 104.469H73.6986C73.7653 104.469 73.8193 104.408 73.8193 104.334V103.906C73.8193 103.831 73.7653 103.771 73.6986 103.771H72.9045C72.8378 103.771 72.7838 103.831 72.7838 103.906V104.334C72.7838 104.408 72.8378 104.469 72.9045 104.469Z" fill="#3F3D56"/>
<path d="M70.8342 104.469H71.6283C71.695 104.469 71.749 104.408 71.749 104.334V103.906C71.749 103.831 71.695 103.771 71.6283 103.771H70.8342C70.7675 103.771 70.7135 103.831 70.7135 103.906V104.334C70.7135 104.408 70.7675 104.469 70.8342 104.469Z" fill="#3F3D56"/>
<path d="M68.7629 104.469H69.557C69.6237 104.469 69.6777 104.408 69.6777 104.334V103.906C69.6777 103.831 69.6237 103.771 69.557 103.771H68.7629C68.6962 103.771 68.6422 103.831 68.6422 103.906V104.334C68.6422 104.408 68.6962 104.469 68.7629 104.469Z" fill="#3F3D56"/>
<path d="M66.6916 104.469H67.4857C67.5524 104.469 67.6064 104.408 67.6064 104.334V103.906C67.6064 103.831 67.5524 103.771 67.4857 103.771H66.6916C66.625 103.771 66.5709 103.831 66.5709 103.906V104.334C66.5709 104.408 66.625 104.469 66.6916 104.469Z" fill="#3F3D56"/>
<path d="M64.6203 104.469H65.4145C65.4811 104.469 65.5352 104.408 65.5352 104.334V103.906C65.5352 103.831 65.4811 103.771 65.4145 103.771H64.6203C64.5537 103.771 64.4996 103.831 64.4996 103.906V104.334C64.4996 104.408 64.5537 104.469 64.6203 104.469Z" fill="#3F3D56"/>
<path d="M78.4966 105.867H86.5395C86.6061 105.867 86.6602 105.806 86.6602 105.731V105.304C86.6602 105.229 86.6061 105.168 86.5395 105.168H78.4966C78.4299 105.168 78.3759 105.229 78.3759 105.304V105.731C78.3759 105.806 78.4299 105.867 78.4966 105.867Z" fill="#3F3D56"/>
</g>
<defs>
<clipPath id="clip0_54_25736">
<rect width="206" height="176" fill="white" transform="translate(0 0.767578)"/>
</clipPath>
</defs>
</svg>
