<svg width="1068" height="1323" viewBox="0 0 1068 1323" fill="none" xmlns="http://www.w3.org/2000/svg">
<path d="M133.559 1022.48C116.337 1032.44 98.9747 1033.07 84.4824 1016.27C87.1017 1015.83 90.2856 1014.21 93.3911 1013.97C96.2613 1007.91 97.7043 997.525 96.5279 990.641C83.6198 992.166 73.5348 986.212 69.1745 974.209C88.8583 963.41 46.5264 904.148 52.0629 881.201C29.2266 871.445 23.5175 851.194 8.8527 832.98C27.3131 831.745 25.9643 811.253 21.855 797.099C17.7927 783.107 12.9306 771.264 10.2172 757.913C5.84131 736.314 -3.27126 729.317 3.31615 704.027C7.34701 688.542 21.4472 666.173 21.7295 648.072C22.0746 625.494 5.21393 615.336 15.8636 591.843C21.902 578.524 42.7151 558.321 54.494 551.132C75.9815 538.022 80.6554 542.403 102.19 549.255C114.581 553.186 140.177 565.992 138.405 538.808C94.8027 531.555 140.773 498.98 134.029 472.005C160.943 449.78 91.8697 459.713 93.8459 460.435C51.2474 444.902 113.624 413.979 135.927 415.793C136.146 419.018 136.633 422.677 136.586 425.87C153.603 420.238 154.528 398.526 157.085 383.298C158.387 375.611 155.391 368.663 156.96 361.297C158.748 352.969 166.59 345.571 167.562 335.285C170.997 298.538 159.547 324.406 141.416 313.943C121.56 302.501 126.061 275.527 136.664 257.843C146.012 255.933 160.849 255.773 169.601 252.387C180.659 248.086 186.728 237.03 194.225 233.452C217.344 222.459 230.754 233.516 227.931 262.464C231.915 262.785 236.134 265.85 240.416 266.091C239.553 282.17 242.392 295.04 251.206 308.15C286.81 293.611 250.109 273.376 246.376 258.051C261.291 252.596 279.626 254.521 295.295 255.34C296.816 275.719 282.638 312.996 316.139 308.359C318.774 281.64 302.18 266.268 300.863 244.235C298.997 213.008 322.052 220.197 342.034 222.7C342.819 222.796 349.5 230.13 353.123 231.045C357.185 232.072 360.416 224.578 363.302 225.38C378.171 229.504 381.214 234.254 394.232 242.213C413.555 254.056 439.293 259.512 462.694 257.137C450.915 242.679 427.137 230.499 410.575 219.362C400.458 212.575 382.845 196.447 371.568 193.286C352.104 187.846 353.217 206.621 338.098 184.653C328.452 170.644 328.42 158.625 350.19 160.839C348.951 152.896 339.211 146.445 337.376 140.588C336.262 136.978 330.475 136.705 329.346 131.955C328.295 127.446 335.337 121.46 334.318 118.524C329.424 104.386 340.372 103.632 322.35 99.8129C314.053 98.0638 308.031 105.493 305.506 112.955C301.365 109.12 298.934 102.348 298.495 94.9828C315.92 86.2693 329.879 81.7601 347.492 88.6763C346.708 67.5104 317.159 61.1559 326.664 38.0964C319.261 36.0906 312.077 32.464 303.859 32.5282C298.055 9.75759 292.848 1.12435 319.888 0.771315C336.482 0.562705 360.134 9.1478 376.21 11.3944C388.836 13.1595 416.268 10.3032 426.384 14.6198C443.292 21.8249 440.359 45.4459 465.125 44.0338C462.38 62.6322 428.596 83.0278 442.586 102.075C446.947 108.013 460.78 102.075 466.238 109.762C471.696 117.432 465.642 133.11 465.925 142.225C493.043 147.183 505.982 128.954 505.088 102.814C523.455 103.407 531.548 118.588 549.177 121.171C567.872 123.899 581.094 108.141 598.316 105.461C641.62 147.472 571.888 146.044 557.019 165.108C522.545 209.285 588.937 179.887 603.413 172.217C606.613 191.473 627.786 199.705 643.565 188.103C658.653 177.015 651.956 158.48 656.693 142.979C674.808 141.888 690.853 137.523 708.263 134.105C711.117 108.96 743.599 95.1753 766.075 100.294C754.014 113.822 732.84 123.033 727.225 142.177C749.497 143.332 768.286 108.767 795.044 118.331C801.286 120.562 807.701 132.003 813.865 136.512C821.535 142.145 832.529 144.52 839.399 149.959C845.5 154.806 846.237 166.295 854.958 168.799C867.286 172.329 868.525 160.326 878.61 161.112C904.489 163.118 905.006 186.899 899.752 208.98C919.028 212.655 934.148 217.758 951.165 223.406C963.352 227.45 982.158 228.028 990.298 242.069C1004.71 266.861 997.34 325.497 987.333 343.549C986.424 340.709 981.311 335.382 980.699 331.819C968.512 340.934 966.316 354.766 959.337 367.235C977.735 382.656 985.624 401.639 990.706 425.469C963.932 440.874 1001.87 456.359 1006.77 474.027C1012.41 494.39 997.23 533.048 1019.56 541.617C995.756 558.482 1022.7 561.418 1032.77 570.501C1046.07 582.504 1042.9 586.275 1050.29 603.381C1056.31 617.278 1065.16 620.632 1066.76 639.31C1068.7 662.129 1058.24 678.754 1058.52 701.059C1049.08 707.173 1037.66 708.151 1028.27 701.941C1025.85 705.889 1018.67 709.628 1017.04 712.019C1007.77 681.514 968.199 714.121 990.078 734.356C972.433 744.337 899.611 727.681 901.666 751.943C887.44 754.623 881.841 739.86 870.752 741.401C857.405 743.246 848.951 766.931 839.383 773.013C823.887 782.85 816.218 780.748 803.451 789.798C791.342 798.383 774.325 818.41 768.224 832.371C702.475 776.03 723.539 876.403 763.126 873.114C760.46 889.113 773.07 883.095 776.191 891.953C779.109 900.185 777.477 907.342 779.203 915.494C781.132 924.592 778.183 962.238 781.571 966.443C788.629 975.22 797.161 967.694 805.537 972.059C810.901 974.851 823.464 986.694 828.906 992.455C840.356 1004.55 844.951 1026.19 857.483 1036.63C869.042 1046.28 882.327 1046.6 894.843 1059.26C906.089 1070.64 923.012 1081.88 928.313 1097.37C943.339 1141.19 884.946 1136.43 880.68 1174.51C858.91 1162.15 817.802 1208.49 829.392 1230.75C833.266 1227.09 843.069 1225.97 846.551 1223.42C851.162 1240.19 861.247 1257.85 859.836 1276.16C839.917 1281.27 832.702 1270.05 820.954 1257.45C809.364 1273.1 802.337 1266.91 786.982 1268.4C780.865 1268.99 776.489 1265.08 771.423 1265.81C761.526 1267.26 759.393 1275.33 750.391 1278.83C725.751 1288.39 693.943 1287.43 672.612 1305.92C666.605 1286.93 656.253 1300.38 643.126 1297.8C634.782 1296.14 624.65 1290.17 614.706 1287.19C596.81 1281.84 565.598 1279.5 546.95 1282.12C544.566 1294.84 554.462 1312.21 543.985 1319.54C531.971 1327.96 518.89 1310.09 511.942 1305.92C487.788 1291.44 487.585 1302.58 460.294 1300.62C431.027 1298.5 428.047 1278.23 408.128 1262.65C379.316 1240.09 379.237 1269.12 355.538 1279.04C353.264 1268.45 353.17 1255.88 350.112 1244.87C319.872 1244.55 328.593 1277.37 303.42 1284.64C285.21 1289.9 247.129 1287.41 233.436 1275.76C220.763 1264.98 196.5 1232.16 198.743 1212.3C200.907 1193.27 217.799 1148.13 239.773 1164.01C242.706 1146.86 235.083 1131.32 238.032 1116.21C242.204 1094.74 264.632 1076.75 276.505 1060.51C261.605 1051.23 252.304 1049.47 237.938 1044C224.104 1038.72 214.835 1027.2 202.13 1021.8C189.959 1016.65 131.849 1018.16 125.669 1027.81" fill="#F3F4F8"/>
<path d="M133.559 1022.48C116.337 1032.44 98.9747 1033.07 84.4824 1016.27C87.1017 1015.83 90.2856 1014.21 93.3911 1013.97C96.2613 1007.91 97.7043 997.525 96.5279 990.641C83.6198 992.166 73.5348 986.212 69.1745 974.209C88.8583 963.41 46.5264 904.148 52.0629 881.201C29.2266 871.445 23.5175 851.194 8.8527 832.98C27.3131 831.745 25.9643 811.253 21.855 797.099C17.7927 783.107 12.9306 771.264 10.2172 757.913C5.84131 736.314 -3.27126 729.317 3.31615 704.027C7.34701 688.542 21.4472 666.173 21.7295 648.072C22.0746 625.494 5.21393 615.336 15.8636 591.843C21.902 578.524 42.7151 558.321 54.494 551.132C75.9815 538.022 80.6554 542.403 102.19 549.255C114.581 553.186 140.177 565.992 138.405 538.808C94.8027 531.555 140.773 498.98 134.029 472.005C160.943 449.78 91.8697 459.713 93.8459 460.435C51.2474 444.902 113.624 413.979 135.927 415.793C136.146 419.018 136.633 422.677 136.586 425.87C153.603 420.238 154.528 398.526 157.085 383.298C158.387 375.611 155.391 368.663 156.96 361.297C158.748 352.969 166.59 345.571 167.562 335.285C170.997 298.538 159.547 324.406 141.416 313.943C121.56 302.501 126.061 275.527 136.664 257.843C146.012 255.933 160.849 255.773 169.601 252.387C180.659 248.086 186.728 237.03 194.225 233.452C217.344 222.459 230.754 233.516 227.931 262.464C231.915 262.785 236.134 265.85 240.416 266.091C239.553 282.17 242.392 295.04 251.206 308.15C286.81 293.611 250.109 273.376 246.376 258.051C261.291 252.596 279.626 254.521 295.295 255.34C296.816 275.719 282.638 312.996 316.139 308.359C318.774 281.64 302.18 266.268 300.863 244.235C298.997 213.008 322.052 220.197 342.034 222.7C342.818 222.796 349.5 230.13 353.123 231.045C357.185 232.072 360.416 224.578 363.302 225.38C378.171 229.504 381.214 234.254 394.232 242.213C413.555 254.056 439.293 259.512 462.694 257.137C450.915 242.679 427.137 230.499 410.575 219.362C400.458 212.575 382.845 196.447 371.568 193.286C352.104 187.846 353.217 206.621 338.098 184.653C328.452 170.644 328.42 158.625 350.19 160.839C348.951 152.896 339.211 146.445 337.376 140.588C336.262 136.978 330.475 136.705 329.346 131.955C328.295 127.446 335.337 121.46 334.318 118.524C329.424 104.386 340.372 103.632 322.35 99.8129C314.053 98.0638 308.031 105.493 305.506 112.955C301.365 109.12 298.934 102.348 298.495 94.9828C315.92 86.2693 329.879 81.7601 347.492 88.6763C346.708 67.5104 317.159 61.1559 326.664 38.0964C319.261 36.0906 312.077 32.464 303.859 32.5282C298.055 9.75759 292.848 1.12435 319.888 0.771315C336.482 0.562705 360.134 9.1478 376.21 11.3944C388.836 13.1595 416.268 10.3032 426.384 14.6198C443.292 21.8249 440.359 45.4459 465.125 44.0338C462.38 62.6322 428.596 83.0278 442.586 102.075C446.947 108.013 460.78 102.075 466.238 109.762C471.696 117.432 465.642 133.11 465.925 142.225C493.043 147.183 505.982 128.954 505.088 102.814C523.455 103.407 531.548 118.588 549.177 121.171C567.872 123.899 581.094 108.141 598.316 105.461C641.62 147.472 571.888 146.044 557.019 165.108C522.545 209.285 588.937 179.887 603.413 172.217C606.613 191.473 627.786 199.705 643.565 188.103C658.653 177.015 651.956 158.48 656.693 142.979C674.808 141.888 690.853 137.523 708.263 134.105C711.117 108.96 743.599 95.1753 766.075 100.294C754.014 113.822 732.84 123.033 727.225 142.177C749.497 143.332 768.286 108.767 795.044 118.331C801.286 120.562 807.701 132.003 813.865 136.512C821.535 142.145 832.529 144.52 839.399 149.959C845.5 154.806 846.237 166.295 854.958 168.799C867.286 172.329 868.525 160.326 878.61 161.112C904.489 163.118 905.006 186.899 899.752 208.98C919.028 212.655 934.148 217.758 951.165 223.406C963.352 227.45 982.158 228.028 990.298 242.069C1004.71 266.861 997.34 325.497 987.333 343.549C986.424 340.709 981.311 335.382 980.699 331.819C968.512 340.934 966.316 354.766 959.337 367.235C977.735 382.656 985.624 401.639 990.706 425.469C963.932 440.874 1001.87 456.359 1006.77 474.027C1012.41 494.39 997.23 533.048 1019.56 541.617C995.756 558.482 1022.7 561.418 1032.77 570.501C1046.07 582.504 1042.9 586.275 1050.29 603.381C1056.31 617.278 1065.16 620.632 1066.76 639.31C1068.7 662.129 1058.24 678.754 1058.52 701.059C1049.08 707.173 1037.66 708.151 1028.27 701.941C1025.85 705.889 1018.67 709.628 1017.04 712.019C1007.77 681.514 968.199 714.121 990.078 734.356C972.433 744.337 899.611 727.681 901.666 751.943C887.44 754.623 881.841 739.86 870.752 741.401C857.405 743.246 848.951 766.931 839.383 773.013C823.887 782.85 816.218 780.748 803.451 789.798C791.342 798.383 774.325 818.41 768.224 832.371C702.475 776.03 723.539 876.403 763.126 873.114C760.46 889.113 773.07 883.095 776.191 891.953C779.109 900.185 777.477 907.342 779.203 915.494C781.132 924.592 778.183 962.238 781.571 966.443C788.629 975.22 797.161 967.694 805.537 972.059C810.901 974.851 823.464 986.694 828.906 992.455C840.356 1004.55 844.951 1026.19 857.483 1036.63C869.042 1046.28 882.327 1046.6 894.843 1059.26C906.089 1070.64 923.012 1081.88 928.313 1097.37C943.339 1141.19 884.946 1136.43 880.68 1174.51C858.91 1162.15 817.802 1208.49 829.392 1230.75C833.266 1227.09 843.069 1225.97 846.551 1223.42C851.162 1240.19 861.247 1257.85 859.836 1276.16C839.917 1281.27 832.702 1270.05 820.954 1257.45C809.364 1273.1 802.337 1266.9 786.982 1268.4C780.865 1268.99 776.489 1265.08 771.423 1265.81C761.527 1267.26 759.393 1275.33 750.391 1278.83C725.751 1288.39 693.943 1287.43 672.612 1305.92C666.605 1286.93 656.253 1300.38 643.126 1297.8C634.782 1296.14 624.65 1290.17 614.706 1287.19C596.81 1281.84 565.598 1279.5 546.95 1282.12C544.566 1294.84 554.462 1312.21 543.985 1319.54C531.971 1327.96 518.89 1310.09 511.942 1305.92C487.788 1291.44 487.585 1302.58 460.294 1300.62C431.027 1298.5 428.047 1278.23 408.128 1262.65C379.316 1240.09 379.237 1269.12 355.538 1279.04C353.264 1268.45 353.17 1255.88 350.112 1244.87C319.872 1244.55 328.593 1277.37 303.42 1284.64C285.21 1289.9 247.129 1287.41 233.436 1275.76C220.763 1264.98 196.5 1232.16 198.743 1212.3C200.907 1193.27 217.799 1148.13 239.773 1164.01C242.706 1146.86 235.083 1131.32 238.032 1116.21C242.204 1094.74 264.632 1076.75 276.505 1060.51C261.605 1051.23 252.304 1049.47 237.938 1044C224.104 1038.72 214.835 1027.2 202.13 1021.8C189.959 1016.65 131.849 1018.16 125.669 1027.81" stroke="#112546" stroke-width="0.5" stroke-miterlimit="10" stroke-linecap="round" stroke-linejoin="round"/>
</svg>
