<svg width="246" height="177" viewBox="0 0 246 177" fill="none" xmlns="http://www.w3.org/2000/svg">
<g clip-path="url(#clip0_54_25924)">
<path d="M224.781 157.662L225.151 149.748C229 147.787 233.294 146.751 237.659 146.73C231.651 151.412 232.402 160.435 228.329 166.73C227.043 168.684 225.312 170.337 223.264 171.567C221.217 172.797 218.905 173.572 216.501 173.834L211.473 176.768C210.784 173.102 210.936 169.338 211.919 165.735C212.903 162.131 214.694 158.773 217.17 155.893C218.576 154.29 220.188 152.862 221.969 151.644C223.173 154.669 224.781 157.662 224.781 157.662Z" fill="#F2F2F2"/>
<path d="M52.1895 87.3092C51.8573 87.0203 51.5957 86.6654 51.4229 86.2697C51.2502 85.874 51.1706 85.447 51.1898 85.0188C51.2089 84.5906 51.3264 84.1716 51.5338 83.7913C51.7412 83.4111 52.0336 83.0787 52.3904 82.8178L48.9463 72.9302L54.4322 74.3348L56.8617 83.509C57.2819 84.1093 57.4564 84.8356 57.3523 85.5503C57.2481 86.265 56.8725 86.9185 56.2966 87.3869C55.7207 87.8554 54.9845 88.1062 54.2276 88.0918C53.4706 88.0775 52.7454 87.799 52.1895 87.3092V87.3092Z" fill="#A0616A"/>
<path d="M62.1327 33.5878C63.043 34.0852 68.4285 32.8528 69.4803 33.2034C68.8997 36.5797 72.0532 35.3127 68.6288 39.7467C65.2044 44.1806 58.3072 57.4748 56.7404 62.4435C55.1736 67.4121 56.7244 74.4143 56.4897 76.7691C56.3763 78.1335 56.3834 79.5046 56.5109 80.8678C54.6607 80.8455 52.8371 81.2115 50.958 80.9777C48.9541 75.5735 47.6068 67.8811 46.6919 63.6297C45.7769 59.3784 45.7435 61.1763 46.1631 59.0505C46.5827 56.9246 46.6843 58.4694 46.2435 56.4357C45.8027 54.4021 47.5854 51.8469 49.2326 50.3899C49.9428 48.4431 50.8606 46.6278 51.5637 44.7013C56.716 40.4175 57.0548 37.9429 62.1327 33.5878Z" fill="#112546"/>
<path d="M211.828 171.284H207.276L205.11 154.55H211.829L211.828 171.284Z" fill="#FFB6B6"/>
<path d="M212.989 175.49L198.312 175.489V175.312C198.312 173.868 198.914 172.483 199.985 171.462C201.056 170.441 202.509 169.867 204.025 169.867H204.025L206.706 167.929L211.708 169.868L212.99 169.868L212.989 175.49Z" fill="#2F2E41"/>
<path d="M190.68 171.284H186.128L183.963 154.55H190.681L190.68 171.284Z" fill="#FFB6B6"/>
<path d="M191.841 175.49L177.163 175.489V175.312C177.163 173.868 177.765 172.483 178.837 171.462C179.908 170.441 181.361 169.867 182.876 169.867H182.876L185.558 167.929L190.56 169.868L191.841 169.868L191.841 175.49Z" fill="#2F2E41"/>
<path d="M188.71 79.7969L218.319 80.5024C223.942 83.4134 224.027 89.7138 222.185 97.1943C222.185 97.1943 222.807 101.64 221.563 102.826C220.319 104.012 219.697 104.012 220.319 106.087C220.941 108.161 217.655 111.55 218.054 111.931C218.453 112.311 219.386 114.386 219.386 114.386L216.276 131.281C216.276 131.281 214.099 160.626 213.477 161.219C212.855 161.812 212.233 161.219 212.855 162.701C213.477 164.183 214.099 163.59 213.477 164.183C212.926 164.749 212.407 165.343 211.922 165.961H204.403C204.403 165.961 203.836 162.997 203.836 162.701C203.836 162.404 203.214 160.626 203.214 160.329C203.214 160.033 203.764 159.509 203.764 159.509C203.954 158.907 204.082 158.288 204.147 157.662C204.147 157.069 206.013 134.245 206.013 134.245L202.281 104.604L193.262 133.653C193.262 133.653 193.262 159.144 192.64 159.737C192.018 160.329 192.018 160.033 192.329 161.219C192.64 162.404 193.884 162.108 192.951 162.997C192.018 163.886 191.707 162.404 192.018 163.886L192.329 165.368L182.999 165.496C182.999 165.496 181.755 162.997 182.377 162.108C182.999 161.219 182.961 161.461 182.203 160.006C181.444 158.551 181.133 158.255 181.444 157.958C181.755 157.662 181.755 156.085 181.755 156.085L183.31 127.724C183.31 127.724 183.621 97.7871 183.621 96.8978C183.644 96.4403 183.556 95.9838 183.362 95.5644V94.3574L184.554 90.0804L188.71 79.7969Z" fill="#2F2E41"/>
<path d="M206.495 21.1194C211.576 21.1194 215.695 17.1938 215.695 12.3514C215.695 7.50904 211.576 3.5835 206.495 3.5835C201.415 3.5835 197.296 7.50904 197.296 12.3514C197.296 17.1938 201.415 21.1194 206.495 21.1194Z" fill="#FFB6B6"/>
<path d="M201.896 26.9143C199.914 28.0373 198.729 30.1006 198.048 32.2002C196.788 36.0874 196.03 40.1064 195.79 44.1684L195.071 56.3294L186.168 82.2234C193.884 88.4458 222.886 83.6376 222.886 83.6376C222.886 83.6376 223.777 83.3548 222.886 82.5063C221.996 81.6577 221.129 82.4095 222.02 81.561C222.91 80.7124 222.296 81.6577 221.999 80.8092C221.703 79.9607 221.999 80.5264 222.296 80.2435C222.593 79.9607 219.999 77.4152 219.999 77.4152L222.373 62.5517L225.34 32.571C221.779 28.3285 214.617 25.8275 214.617 25.8275L212.767 22.6528L203.514 23.3583L201.896 26.9143Z" fill="#3F3D56"/>
<path d="M200.634 7.20553C200.99 7.20817 201.344 7.25248 201.689 7.33745C202.368 7.49311 203.058 7.60339 203.754 7.66746C205.884 7.85842 207.885 8.72407 209.438 10.1261C210.991 11.5282 212.006 13.3858 212.321 15.4023C212.856 14.9581 214.072 14.141 215.069 14.9004C215.084 14.9125 215.093 14.9187 215.128 14.9028C215.79 14.6035 216.966 10.9186 217.001 7.67417C217.02 5.95214 216.736 3.75318 215.274 3.05683L215.197 3.02014L215.177 2.94039C215.08 2.55303 213.989 1.89181 212.093 1.37716C208.648 0.44191 203.614 0.306702 200.722 2.98793C200.503 3.89184 199.69 4.13951 198.97 4.35877C198.174 4.60146 197.486 4.81089 197.378 5.74201C197.287 7.06706 197.294 8.39653 197.397 9.72071C197.667 8.91043 198.197 8.20122 198.912 7.69295C199.42 7.36676 200.021 7.19667 200.634 7.20553Z" fill="#2F2E41"/>
<path d="M183.511 55.6521L198.539 46.4796L190.97 36.8901L183.496 45.6523L160.209 47.0135C159.597 46.4365 158.821 46.0417 157.978 45.8774C157.134 45.7132 156.258 45.7864 155.457 46.0883C154.656 46.3902 153.965 46.9076 153.467 47.5775C152.97 48.2474 152.687 49.0409 152.655 49.8611C152.622 50.6813 152.84 51.4929 153.283 52.1969C153.726 52.9008 154.374 53.4667 155.149 53.8257C155.923 54.1846 156.791 54.3209 157.645 54.2181C158.5 54.1153 159.304 53.7778 159.961 53.2467L183.511 55.6521Z" fill="#FFB6B6"/>
<path d="M212.487 33.6766C213.359 38.7073 196.888 48.3138 196.888 48.3138C196.888 47.133 187.057 56.0472 186.614 55.0679C185.353 52.2846 184.466 45.6924 182.704 44.6372C181.696 44.0338 188.773 38.3652 188.773 38.3652C188.773 38.3652 192.478 34.8082 197.339 30.3215C198.689 29.0288 200.36 28.0826 202.197 27.5709C204.033 27.0592 205.976 26.9987 207.844 27.3951C207.844 27.3951 211.614 28.6459 212.487 33.6766Z" fill="#3F3D56"/>
<path d="M195.742 91.4374C195.748 96.821 194.802 102.167 192.944 107.251C192.859 107.487 192.77 107.72 192.681 107.956C188.876 117.804 181.8 126.197 172.529 131.858C171.896 132.246 171.255 132.617 170.604 132.976C163.197 137.069 154.812 139.282 146.251 139.403C145.97 139.407 145.688 139.41 145.407 139.41C145.044 139.41 144.685 139.407 144.326 139.4C135.754 139.237 127.369 136.981 119.973 132.846C119.322 132.483 118.68 132.105 118.049 131.714C107.755 125.354 100.25 115.634 96.9406 104.376C93.6311 93.1184 94.7446 81.0966 100.072 70.5656C100.191 70.3293 100.313 70.0965 100.439 69.8601C104.635 61.9235 111.061 55.2532 119.001 50.5927C126.941 45.9321 136.082 43.4644 145.407 43.4644C154.732 43.4644 163.874 45.9321 171.813 50.5927C179.753 55.2532 186.179 61.9235 190.375 69.8601C190.501 70.0965 190.623 70.3293 190.742 70.5656C194.044 77.0727 195.753 84.2092 195.742 91.4374Z" fill="#F2F2F2"/>
<path d="M180.167 107.251V107.956H184.675V107.251H180.167ZM171.151 107.251V107.956H175.659V107.251H171.151ZM162.136 107.251V107.956H166.643V107.251H162.136ZM153.12 107.251V107.956H157.628V107.251H153.12ZM144.104 107.251V107.956H148.612V107.251H144.104ZM135.088 107.251V107.956H139.596V107.251H135.088ZM126.072 107.251V107.956H130.58V107.251H126.072ZM117.06 107.251V107.956H121.564V107.251H117.06ZM108.044 107.251V107.956H112.552V107.251H108.044ZM99.0283 107.251V107.956H103.536V107.251H99.0283ZM192.943 107.251H189.183V107.956H192.681L192.943 107.251Z" fill="#E6E6E6"/>
<path d="M189.183 102.312V103.018H193.691V102.312H189.183ZM180.167 102.312V103.018H184.675V102.312H180.167ZM171.151 102.312V103.018H175.659V102.312H171.151ZM162.136 102.312V103.018H166.643V102.312H162.136ZM153.12 102.312V103.018H157.628V102.312H153.12ZM144.104 102.312V103.018H148.612V102.312H144.104ZM135.088 102.312V103.018H139.596V102.312H135.088ZM126.072 102.312V103.018H130.58V102.312H126.072ZM117.06 102.312V103.018H121.564V102.312H117.06ZM108.044 102.312V103.018H112.552V102.312H108.044ZM99.0283 102.312V103.018H103.536V102.312H99.0283Z" fill="#E6E6E6"/>
<path d="M189.183 92.083V92.7885H193.691V92.083H189.183ZM180.167 92.083V92.7885H184.675V92.083H180.167ZM171.151 92.083V92.7885H175.659V92.083H171.151ZM162.136 92.083V92.7885H166.643V92.083H162.136ZM153.12 92.083V92.7885H157.628V92.083H153.12ZM144.104 92.083V92.7885H148.612V92.083H144.104ZM135.088 92.083V92.7885H139.596V92.083H135.088ZM126.072 92.083V92.7885H130.58V92.083H126.072ZM117.06 92.083V92.7885H121.564V92.083H117.06ZM108.044 92.083V92.7885H112.552V92.083H108.044ZM99.0283 92.083V92.7885H103.536V92.083H99.0283Z" fill="#E6E6E6"/>
<path d="M189.183 85.0283V85.7338H193.691V85.0283H189.183ZM180.167 85.0283V85.7338H184.675V85.0283H180.167ZM171.151 85.0283V85.7338H175.659V85.0283H171.151ZM162.136 85.0283V85.7338H166.643V85.0283H162.136ZM153.12 85.0283V85.7338H157.628V85.0283H153.12ZM144.104 85.0283V85.7338H148.612V85.0283H144.104ZM135.088 85.0283V85.7338H139.596V85.0283H135.088ZM126.072 85.0283V85.7338H130.58V85.0283H126.072ZM117.06 85.0283V85.7338H121.564V85.0283H117.06ZM108.044 85.0283V85.7338H112.552V85.0283H108.044ZM99.0283 85.0283V85.7338H103.536V85.0283H99.0283Z" fill="#E6E6E6"/>
<path d="M190.375 69.8604H189.183V70.5658H190.741C190.623 70.3295 190.501 70.0967 190.375 69.8604ZM180.167 69.8604V70.5658H184.675V69.8604H180.167ZM171.152 69.8604V70.5658H175.66V69.8604H171.152ZM162.136 69.8604V70.5658H166.644V69.8604H162.136ZM153.12 69.8604V70.5658H157.628V69.8604H153.12ZM144.104 69.8604V70.5658H148.612V69.8604H144.104ZM135.088 69.8604V70.5658H139.596V69.8604H135.088ZM126.072 69.8604V70.5658H130.58V69.8604H126.072ZM117.06 69.8604V70.5658H121.564V69.8604H117.06ZM108.044 69.8604V70.5658H112.552V69.8604H108.044ZM100.439 69.8604C100.313 70.0967 100.191 70.3295 100.072 70.5658H103.536V69.8604H100.439Z" fill="#E6E6E6"/>
<path d="M172.528 72.2378V131.858C171.895 132.246 171.255 132.617 170.604 132.977V72.2378H172.528Z" fill="#3F3D56"/>
<path d="M146.251 91.9912V139.403C145.969 139.407 145.688 139.41 145.407 139.41C145.044 139.41 144.685 139.407 144.326 139.4V91.9912H146.251Z" fill="#3F3D56"/>
<path d="M119.973 72.2378V132.846C119.322 132.483 118.68 132.105 118.049 131.714V72.2378H119.973Z" fill="#3F3D56"/>
<path d="M25.668 153.386L24.9339 143.654C20.1249 141.363 14.8018 140.225 9.42676 140.34C16.9887 145.911 16.383 157.045 21.62 164.665C23.2725 167.03 25.4622 169.01 28.0267 170.458C30.5912 171.907 33.4648 172.786 36.4346 173.033L42.728 176.483C43.4479 171.948 43.1277 167.319 41.7895 162.913C40.4513 158.507 38.1268 154.431 34.9763 150.964C33.1887 149.035 31.1534 147.329 28.9184 145.886C27.5428 149.65 25.668 153.386 25.668 153.386Z" fill="#F2F2F2"/>
<path d="M171.314 76.975C175.198 76.975 178.346 73.9744 178.346 70.2729C178.346 66.5714 175.198 63.5708 171.314 63.5708C167.431 63.5708 164.282 66.5714 164.282 70.2729C164.282 73.9744 167.431 76.975 171.314 76.975Z" fill="#112546"/>
<path d="M174.924 67.4799C174.818 67.3837 174.678 67.3301 174.532 67.3301C174.385 67.3301 174.245 67.3837 174.139 67.4799C172.647 68.6141 171.307 69.9188 170.149 71.3646C169.864 70.8403 169.58 70.316 169.296 69.7916C168.967 69.1864 168.009 69.7211 168.337 70.3258C168.753 71.0927 169.169 71.8596 169.584 72.6265C169.635 72.7048 169.705 72.7695 169.789 72.8143C169.873 72.8592 169.968 72.8828 170.064 72.8828C170.16 72.8828 170.255 72.8592 170.339 72.8143C170.423 72.7695 170.493 72.7048 170.543 72.6265C171.777 70.9699 173.252 69.4889 174.924 68.2282C175.027 68.1286 175.085 67.9941 175.085 67.8541C175.085 67.714 175.027 67.5796 174.924 67.4799Z" fill="white"/>
<path d="M145.407 96.7289C149.291 96.7289 152.439 93.7283 152.439 90.0268C152.439 86.3253 149.291 83.3247 145.407 83.3247C141.523 83.3247 138.375 86.3253 138.375 90.0268C138.375 93.7283 141.523 96.7289 145.407 96.7289Z" fill="#112546"/>
<path d="M149.017 87.2333C148.911 87.1372 148.771 87.0835 148.624 87.0835C148.478 87.0835 148.338 87.1372 148.232 87.2333C146.74 88.3675 145.399 89.6722 144.241 91.118C143.957 90.5937 143.673 90.0694 143.388 89.5451C143.06 88.9399 142.102 89.4745 142.43 90.0792C142.846 90.8461 143.261 91.613 143.677 92.3799C143.727 92.4582 143.798 92.5229 143.882 92.5678C143.966 92.6127 144.06 92.6362 144.157 92.6362C144.253 92.6362 144.348 92.6127 144.431 92.5678C144.515 92.5229 144.586 92.4582 144.636 92.3799C145.87 90.7233 147.345 89.2424 149.017 87.9816C149.12 87.882 149.178 87.7476 149.178 87.6075C149.178 87.4674 149.12 87.333 149.017 87.2333Z" fill="white"/>
<path d="M119.129 78.3862C123.012 78.3862 126.161 75.3855 126.161 71.6841C126.161 67.9826 123.012 64.9819 119.129 64.9819C115.245 64.9819 112.097 67.9826 112.097 71.6841C112.097 75.3855 115.245 78.3862 119.129 78.3862Z" fill="#112546"/>
<path d="M122.739 68.8906C122.633 68.7944 122.492 68.7407 122.346 68.7407C122.2 68.7407 122.059 68.7944 121.953 68.8906C120.461 70.0248 119.121 71.3294 117.963 72.7753C117.679 72.2509 117.394 71.7266 117.11 71.2023C116.782 70.5971 115.823 71.1317 116.151 71.7364C116.567 72.5033 116.983 73.2702 117.399 74.0371C117.449 74.1154 117.52 74.1801 117.603 74.225C117.687 74.2699 117.782 74.2934 117.878 74.2934C117.975 74.2934 118.069 74.2699 118.153 74.225C118.237 74.1801 118.307 74.1154 118.358 74.0371C119.592 72.3805 121.067 70.8996 122.739 69.6388C122.842 69.5392 122.9 69.4048 122.9 69.2647C122.9 69.1246 122.842 68.9902 122.739 68.8906Z" fill="white"/>
<path d="M219.975 66.9178L224.605 50.4922L212.234 48.2603L212.899 59.5347L196.645 75.486C195.784 75.4525 194.932 75.6583 194.192 76.0784C193.452 76.4984 192.857 77.1146 192.478 77.8518C192.099 78.5889 191.953 79.4152 192.059 80.2299C192.164 81.0445 192.516 81.8123 193.071 82.4397C193.627 83.0671 194.362 83.5269 195.186 83.7631C196.011 83.9993 196.89 84.0017 197.716 83.7699C198.543 83.5382 199.28 83.0824 199.839 82.458C200.398 81.8336 200.755 81.0677 200.865 80.2536L219.975 66.9178Z" fill="#FFB6B6"/>
<path d="M225.871 32.0759C230.07 35.2353 224.681 52.9079 224.681 52.9079C223.846 52.0352 222.876 64.9344 221.857 64.4952C218.958 63.2469 213.645 58.9423 211.596 59.2932C210.425 59.4938 211.652 50.7609 211.652 50.7609C211.652 50.7609 211.878 45.7537 212.302 39.3167C212.387 37.4947 212.954 35.7228 213.95 34.1658C214.946 32.6088 216.34 31.3173 218.001 30.4117C218.001 30.4117 221.672 28.9164 225.871 32.0759Z" fill="#3F3D56"/>
<path d="M80.8354 68.9533L85.9247 90.5997L53.3115 88.6664L62.1801 67.4072L80.8354 68.9533Z" fill="#A0616A"/>
<path d="M75.4041 168.86L79.0674 168.859L80.8102 155.392H75.4033L75.4041 168.86Z" fill="#A0616A"/>
<path d="M74.1638 167.138L79.955 166.808V169.173L85.4609 172.797C85.7328 172.976 85.9376 173.233 86.0454 173.531C86.1532 173.829 86.1583 174.151 86.0599 174.452C85.9616 174.753 85.7649 175.016 85.4987 175.202C85.2325 175.389 84.9107 175.49 84.5802 175.49H77.6855L76.4972 173.151L76.0331 175.49H73.4336L74.1638 167.138Z" fill="#2F2E41"/>
<path d="M40.7793 167.122L44.3597 167.863L49.0586 155.053L43.7746 153.961L40.7793 167.122Z" fill="#A0616A"/>
<path d="M39.9504 165.189L45.6832 166.037L45.1572 168.348L49.7317 173.002C49.9577 173.232 50.1007 173.525 50.1398 173.838C50.1788 174.15 50.112 174.467 49.949 174.741C49.786 175.015 49.5354 175.232 49.2337 175.361C48.932 175.489 48.5951 175.523 48.2721 175.456L41.5342 174.063L40.8932 171.537L39.9194 173.729L37.3789 173.204L39.9504 165.189Z" fill="#2F2E41"/>
<path d="M86.7568 108.701C84.1857 122.168 83.5429 127.982 83.5429 127.982C83.5429 127.982 85.4712 130.125 84.1857 131.35C82.9002 132.575 84.1857 135.022 84.1857 135.022L81.2951 164.711L78.9682 164.352L73.3628 163.493L71.3412 163.182L72.6267 135.33C72.6267 135.33 71.3412 132.88 71.984 132.267C72.6267 131.655 71.3412 127.982 71.3412 127.982L69.7361 98.9058L59.7786 130.737C59.7786 130.737 60.7445 131.963 59.7786 132.88C58.8162 133.797 56.8916 138.39 56.8916 138.39L50.9702 158.137L50.4675 159.814L47.3794 159.263L44.0183 158.661L43.4007 158.551L42.3019 158.353L41.5945 158.226L41.3539 158.185L40.1904 157.976L40.5424 156.487L40.7255 155.704L45.7347 134.499L45.8497 134.009L45.9717 133.492C45.9717 133.492 45.329 131.963 46.2913 131.042C46.5729 130.761 46.7785 130.42 46.8905 130.047C47.0025 129.673 47.0174 129.28 46.9341 128.9C46.9026 128.868 46.8738 128.833 46.8479 128.797C46.7343 128.648 46.6558 128.478 46.6181 128.297C46.5319 127.914 46.6073 127.377 47.2573 126.757C47.4403 126.572 47.5939 126.362 47.7133 126.134C48.69 124.372 49.182 120.638 49.182 120.638C49.182 120.638 50.051 91.0651 52.8949 86.5476C53.0458 86.3114 56.0649 81.778 56.2229 81.6856C59.4331 79.8512 84.4438 82.3849 84.4438 82.3849C84.4438 82.3849 85.9586 86.2635 86.0268 86.6674C86.3967 88.9364 88.9364 97.2768 86.7568 108.701Z" fill="#2F2E41"/>
<path d="M79.1577 37.4678C79.1577 37.4678 79.6989 34.7904 74.4986 29.8341C71.7456 28.9595 66.9755 29.4693 65.3217 29.8341C57.6743 39.4551 59.0436 37.7575 57.053 43.1331C56.5368 44.527 56.2786 45.8663 56.5081 46.9596C57.4258 51.3327 58.9156 73.7812 58.6097 74.9474C58.3038 76.1136 56.1626 77.5713 58.3038 77.5713C60.4451 77.5713 88.0587 77.1106 87.4469 76.236C86.8351 75.3613 79.1577 37.4678 79.1577 37.4678Z" fill="#112546"/>
<path d="M111.952 73.0402C111.533 73.195 111.083 73.2603 110.634 73.2314C110.186 73.2025 109.749 73.0803 109.355 72.8732C108.962 72.6661 108.62 72.3793 108.355 72.0329C108.091 71.6865 107.909 71.289 107.823 70.8684L97 69.4032L100.763 65.3477L110.463 67.3607C111.214 67.2695 111.974 67.4441 112.6 67.8513C113.225 68.2585 113.671 68.8701 113.855 69.5702C114.038 70.2703 113.946 71.0102 113.595 71.6498C113.245 72.2893 112.66 72.7841 111.952 73.0403L111.952 73.0402Z" fill="#A0616A"/>
<path d="M66.165 35.7443C67.0377 35.1891 68.0288 34.9284 68.8266 34.187C71.7397 36.1863 71.9541 32.9311 74.5941 37.8281C77.2341 42.7251 86.6507 54.5319 90.6203 58.082C94.59 61.6321 101.859 63.4276 103.966 64.6767C105.197 65.3811 106.489 65.9858 107.826 66.4842C106.981 68.0531 106.512 69.7722 105.456 71.2716C99.4866 70.5744 91.6602 68.2979 87.259 67.185C82.8578 66.0721 84.5318 66.9015 82.7217 65.5966C80.9116 64.2916 82.408 64.893 80.3013 64.3633C78.1945 63.8336 76.5881 61.1743 75.9531 59.1198C74.4406 57.6467 73.1441 56.0549 71.6475 54.5969C69.9182 48.2923 67.9945 42.0172 66.165 35.7443Z" fill="#112546"/>
<path d="M72.9993 26.103C77.8913 26.103 81.857 22.3233 81.857 17.6609C81.857 12.9984 77.8913 9.21875 72.9993 9.21875C68.1073 9.21875 64.1416 12.9984 64.1416 17.6609C64.1416 22.3233 68.1073 26.103 72.9993 26.103Z" fill="#A0616A"/>
<path d="M78.9168 33.0923C78.4969 32.5209 75.3579 26.8546 74.4248 24.7119C74.3289 25.1759 74.2683 25.6459 74.2436 26.1183L74.2343 26.2943L74.051 26.3169C73.7751 26.3505 67.2604 27.1042 63.87 23.4401C61.8613 21.2698 61.4057 18.0143 62.5142 13.7623C62.3126 13.7246 62.1194 13.6537 61.9433 13.5528C61.6502 13.3594 61.4048 13.1074 61.2243 12.8143C61.0438 12.5212 60.9326 12.1941 60.8984 11.8559L60.7107 11.9039C54.679 9.1065 59.8754 0.923262 65.3847 4.9918C65.868 4.88889 66.3717 4.91648 66.8394 5.07147C67.2905 5.24637 67.6835 5.53433 67.9768 5.90482C68.2701 6.27532 68.4527 6.71454 68.5054 7.17594C71.3519 5.74893 75.1193 5.98114 77.0677 7.05181C77.8835 7.50016 78.352 8.06483 78.4352 8.69475C80.7365 8.81723 83.2118 10.9538 83.2118 13.981V14.1918H82.9906C82.0647 14.2105 81.1617 14.469 80.3781 14.9394C79.5945 15.4098 78.9599 16.0745 78.5423 16.8623C77.9763 17.8369 77.6962 18.9387 77.7314 20.052C77.7666 21.1653 78.1158 22.2491 78.7423 23.1894C79.4242 24.1867 79.8897 25.304 80.1116 26.4755C80.3334 27.6469 80.307 28.8489 80.0339 30.0104L79.2028 33.4814L78.9168 33.0923Z" fill="#2F2E41"/>
<path d="M104.619 175.559C104.619 175.615 104.607 175.669 104.585 175.72C104.563 175.771 104.531 175.818 104.49 175.857C104.449 175.896 104.4 175.927 104.347 175.948C104.293 175.969 104.236 175.979 104.178 175.979H0.44043C0.323621 175.979 0.211595 175.935 0.128998 175.856C0.0464016 175.778 0 175.671 0 175.559C0 175.448 0.0464016 175.341 0.128998 175.263C0.211595 175.184 0.323621 175.14 0.44043 175.14H104.178C104.236 175.139 104.293 175.15 104.347 175.171C104.4 175.192 104.449 175.223 104.49 175.262C104.531 175.301 104.563 175.348 104.585 175.399C104.607 175.45 104.619 175.504 104.619 175.559Z" fill="#CCCCCC"/>
<path d="M246 175.559C246.001 175.615 245.989 175.669 245.967 175.72C245.945 175.771 245.913 175.818 245.872 175.857C245.831 175.896 245.782 175.927 245.729 175.948C245.675 175.969 245.618 175.979 245.56 175.979H141.822C141.705 175.979 141.593 175.935 141.511 175.856C141.428 175.778 141.382 175.671 141.382 175.559C141.382 175.448 141.428 175.341 141.511 175.263C141.593 175.184 141.705 175.14 141.822 175.14H245.56C245.618 175.139 245.675 175.15 245.729 175.171C245.782 175.192 245.831 175.223 245.872 175.262C245.913 175.301 245.945 175.348 245.967 175.399C245.989 175.45 246.001 175.504 246 175.559Z" fill="#CCCCCC"/>
<path d="M118.911 145.307C121.076 145.307 122.831 143.635 122.831 141.572C122.831 139.508 121.076 137.836 118.911 137.836C116.746 137.836 114.991 139.508 114.991 141.572C114.991 143.635 116.746 145.307 118.911 145.307Z" fill="#E6E6E6"/>
<path d="M145.188 149.187C147.353 149.187 149.108 147.515 149.108 145.452C149.108 143.388 147.353 141.716 145.188 141.716C143.023 141.716 141.269 143.388 141.269 145.452C141.269 147.515 143.023 149.187 145.188 149.187Z" fill="#E6E6E6"/>
<path d="M171.466 144.602C173.63 144.602 175.385 142.929 175.385 140.866C175.385 138.803 173.63 137.13 171.466 137.13C169.301 137.13 167.546 138.803 167.546 140.866C167.546 142.929 169.301 144.602 171.466 144.602Z" fill="#E6E6E6"/>
</g>
<defs>
<clipPath id="clip0_54_25924">
<rect width="246" height="176" fill="white" transform="translate(0 0.767578)"/>
</clipPath>
</defs>
</svg>
