<svg width="40" height="41" viewBox="0 0 40 41" fill="none" xmlns="http://www.w3.org/2000/svg">
<g clip-path="url(#clip0_113_751)">
<path fill-rule="evenodd" clip-rule="evenodd" d="M0 20.6312C0 30.5745 7.22167 38.8429 16.6667 40.5195V26.0745H11.6667V20.5195H16.6667V16.0745C16.6667 11.0745 19.8883 8.29786 24.445 8.29786C25.8883 8.29786 27.445 8.51953 28.8883 8.7412V13.8529H26.3333C23.8883 13.8529 23.3333 15.0745 23.3333 16.6312V20.5195H28.6667L27.7783 26.0745H23.3333V40.5195C32.7783 38.8429 40 30.5762 40 20.6312C40 9.56953 31 0.519531 20 0.519531C9 0.519531 0 9.56953 0 20.6312Z" fill="black"/>
</g>
<defs>
<clipPath id="clip0_113_751">
<rect width="40" height="40" fill="white" transform="translate(0 0.519531)"/>
</clipPath>
</defs>
</svg>
