<svg width="40" height="41" viewBox="0 0 40 41" fill="none" xmlns="http://www.w3.org/2000/svg">
<path fill-rule="evenodd" clip-rule="evenodd" d="M12.442 2.29604C14.397 2.20604 15.0203 2.18604 20.0003 2.18604C24.9803 2.18604 25.6037 2.2077 27.557 2.29604C29.5103 2.38437 30.8437 2.69604 32.0103 3.1477C33.232 3.60937 34.3403 4.33104 35.257 5.26437C36.1903 6.17937 36.9103 7.28604 37.3703 8.50937C37.8237 9.67604 38.1337 11.0094 38.2237 12.9594C38.3137 14.9177 38.3337 15.541 38.3337 20.5194C38.3337 25.4994 38.312 26.1227 38.2237 28.0777C38.1353 30.0277 37.8237 31.361 37.3703 32.5277C36.9103 33.7512 36.1891 34.8597 35.257 35.776C34.3403 36.7094 33.232 37.4294 32.0103 37.8894C30.8437 38.3427 29.5103 38.6527 27.5603 38.7427C25.6037 38.8327 24.9803 38.8527 20.0003 38.8527C15.0203 38.8527 14.397 38.831 12.442 38.7427C10.492 38.6544 9.15866 38.3427 7.99199 37.8894C6.76853 37.4293 5.66003 36.7081 4.74366 35.776C3.81096 34.8605 3.08918 33.7525 2.62866 32.5294C2.17699 31.3627 1.86699 30.0294 1.77699 28.0794C1.68699 26.121 1.66699 25.4977 1.66699 20.5194C1.66699 15.5394 1.68866 14.916 1.77699 12.9627C1.86533 11.0094 2.17699 9.67604 2.62866 8.50937C3.08986 7.28617 3.81219 6.17822 4.74533 5.2627C5.66039 4.3302 6.76778 3.60844 7.99033 3.1477C9.15699 2.69604 10.4903 2.38604 12.4403 2.29604H12.442ZM27.4087 5.59604C25.4753 5.5077 24.8953 5.48937 20.0003 5.48937C15.1053 5.48937 14.5253 5.5077 12.592 5.59604C10.8037 5.6777 9.83366 5.97604 9.18699 6.2277C8.33199 6.56104 7.72033 6.95604 7.07866 7.5977C6.4704 8.18946 6.00229 8.90984 5.70866 9.70604C5.45699 10.3527 5.15866 11.3227 5.07699 13.111C4.98866 15.0444 4.97033 15.6244 4.97033 20.5194C4.97033 25.4144 4.98866 25.9944 5.07699 27.9277C5.15866 29.716 5.45699 30.686 5.70866 31.3327C6.00199 32.1277 6.47033 32.8494 7.07866 33.441C7.67033 34.0494 8.39199 34.5177 9.18699 34.811C9.83366 35.0627 10.8037 35.361 12.592 35.4427C14.5253 35.531 15.1037 35.5494 20.0003 35.5494C24.897 35.5494 25.4753 35.531 27.4087 35.4427C29.197 35.361 30.167 35.0627 30.8137 34.811C31.6687 34.4777 32.2803 34.0827 32.922 33.441C33.5303 32.8494 33.9987 32.1277 34.292 31.3327C34.5437 30.686 34.842 29.716 34.9237 27.9277C35.012 25.9944 35.0303 25.4144 35.0303 20.5194C35.0303 15.6244 35.012 15.0444 34.9237 13.111C34.842 11.3227 34.5437 10.3527 34.292 9.70604C33.9587 8.85104 33.5637 8.23937 32.922 7.5977C32.3302 6.98949 31.6098 6.52139 30.8137 6.2277C30.167 5.97604 29.197 5.6777 27.4087 5.59604ZM17.6587 26.171C18.9664 26.7154 20.4226 26.7889 21.7785 26.3789C23.1345 25.9689 24.306 25.1009 25.093 23.9231C25.88 22.7453 26.2338 21.3308 26.0937 19.9212C25.9537 18.5116 25.3287 17.1943 24.3253 16.1944C23.6857 15.5552 22.9123 15.0657 22.0609 14.7613C21.2094 14.4568 20.301 14.345 19.4012 14.4337C18.5013 14.5225 17.6322 14.8097 16.8567 15.2746C16.0811 15.7395 15.4182 16.3706 14.9158 17.1225C14.4134 17.8743 14.084 18.7282 13.9512 19.6226C13.8184 20.5171 13.8856 21.4299 14.1479 22.2952C14.4102 23.1606 14.8611 23.9571 15.4682 24.6272C16.0753 25.2974 16.8234 25.8247 17.6587 26.171ZM13.337 13.856C14.212 12.981 15.2509 12.2869 16.3942 11.8133C17.5375 11.3397 18.7628 11.096 20.0003 11.096C21.2378 11.096 22.4632 11.3397 23.6065 11.8133C24.7498 12.2869 25.7886 12.981 26.6637 13.856C27.5387 14.7311 28.2328 15.7699 28.7064 16.9132C29.18 18.0565 29.4237 19.2819 29.4237 20.5194C29.4237 21.7569 29.18 22.9822 28.7064 24.1255C28.2328 25.2688 27.5387 26.3077 26.6637 27.1827C24.8964 28.9499 22.4996 29.9427 20.0003 29.9427C17.5011 29.9427 15.1042 28.9499 13.337 27.1827C11.5698 25.4155 10.577 23.0186 10.577 20.5194C10.577 18.0201 11.5698 15.6233 13.337 13.856ZM31.5137 12.4994C31.7305 12.2948 31.9041 12.0488 32.0242 11.776C32.1442 11.5031 32.2083 11.209 32.2127 10.9109C32.217 10.6129 32.1615 10.3169 32.0495 10.0407C31.9374 9.76449 31.771 9.51355 31.5603 9.30277C31.3495 9.09198 31.0985 8.92563 30.8223 8.81356C30.5461 8.7015 30.2502 8.646 29.9521 8.65034C29.654 8.65469 29.3599 8.71879 29.087 8.83886C28.8142 8.95893 28.5682 9.13253 28.3637 9.34937C27.9658 9.77108 27.748 10.3312 27.7565 10.9109C27.7649 11.4906 27.999 12.0442 28.4089 12.4541C28.8189 12.864 29.3724 13.0981 29.9521 13.1065C30.5318 13.115 31.0919 12.8972 31.5137 12.4994Z" fill="black"/>
</svg>
