<svg width="21" height="21" viewBox="0 0 21 21" fill="none" xmlns="http://www.w3.org/2000/svg">
<path d="M10.5 2.51953C7.19 2.51953 4.5 5.20953 4.5 8.51953C4.5 10.5395 5.67 12.2295 7.03 13.4095C7.46 13.7795 8.21 14.3695 8.88 15.2395C9.62 16.2095 10.29 17.2495 10.5 17.9495C10.71 17.2495 11.38 16.2095 12.12 15.2395C12.79 14.3695 13.54 13.7795 13.97 13.4095C15.33 12.2295 16.5 10.5395 16.5 8.51953C16.5 5.20953 13.81 2.51953 10.5 2.51953ZM10.5 5.07953C10.9517 5.07953 11.3991 5.16851 11.8164 5.34139C12.2338 5.51426 12.613 5.76765 12.9324 6.08708C13.2519 6.40652 13.5053 6.78574 13.6781 7.2031C13.851 7.62046 13.94 8.06778 13.94 8.51953C13.94 8.97128 13.851 9.4186 13.6781 9.83596C13.5053 10.2533 13.2519 10.6325 12.9324 10.952C12.613 11.2714 12.2338 11.5248 11.8164 11.6977C11.3991 11.8706 10.9517 11.9595 10.5 11.9595C9.58766 11.9595 8.71268 11.5971 8.06755 10.952C7.42243 10.3069 7.06 9.43188 7.06 8.51953C7.06 7.60719 7.42243 6.73221 8.06755 6.08708C8.71268 5.44196 9.58766 5.07953 10.5 5.07953Z" fill="#112546"/>
</svg>
