<svg width="36" height="36" viewBox="0 0 36 36" fill="none" xmlns="http://www.w3.org/2000/svg">
<rect x="0.5" y="0.519531" width="35" height="35" rx="17.5" fill="#112546"/>
<path d="M9.49953 11.0195H9.5H25.5C25.8978 11.0195 26.2794 11.1776 26.5607 11.4589C26.842 11.7402 27 12.1217 27 12.5195V24.5195C27 24.9174 26.842 25.2989 26.5607 25.5802C26.2794 25.8615 25.8978 26.0195 25.5 26.0195H9.5C9.10217 26.0195 8.72064 25.8615 8.43934 25.5802C8.15804 25.2989 8 24.9174 8 24.5195V12.4442C8.01924 12.0615 8.18422 11.7006 8.46129 11.4356C8.74079 11.1682 9.11275 11.0192 9.49953 11.0195ZM9.7773 13.9715L9 13.4534V14.3875V24.5195V25.0195H9.5H25.5H26V24.5195V14.3875V13.4534L25.2227 13.9715L17.5 19.1187L9.7773 13.9715ZM10.3 12.0195H8.64861L10.0227 12.9356L17.2226 17.7356L17.5 17.9205L17.7774 17.7356L24.9774 12.9356L26.3514 12.0195H24.7H10.3Z" fill="black" stroke="white"/>
</svg>
