<svg width="21" height="21" viewBox="0 0 21 21" fill="none" xmlns="http://www.w3.org/2000/svg">
<path d="M2.8212 16.3447L2.46765 16.6982L2.8212 16.3447C2.60241 16.1259 2.47949 15.8291 2.47949 15.5197V5.45904C2.49494 5.16218 2.62316 4.88225 2.83816 4.6766C3.05555 4.46867 3.34486 4.35274 3.64569 4.35303H3.64616H16.9795C17.2889 4.35303 17.5857 4.47594 17.8045 4.69474C18.0232 4.91353 18.1462 5.21028 18.1462 5.51969V15.5197C18.1462 15.8291 18.0232 16.1259 17.8045 16.3447C17.5857 16.5634 17.2889 16.6864 16.9795 16.6864H3.64616C3.33674 16.6864 3.03999 16.5634 2.8212 16.3447ZM3.92346 6.6603L3.14616 6.14223V7.07636V15.5197V16.0197H3.64616H16.9795H17.4795V15.5197V7.07636V6.14223L16.7022 6.6603L10.3128 10.9188L3.92346 6.6603ZM4.31283 5.01969H2.66144L4.03548 5.93572L10.0355 9.93572L10.3128 10.1206L10.5902 9.93572L16.5902 5.93572L17.9642 5.01969H16.3128H4.31283Z" fill="#112546" stroke="#112546"/>
</svg>
