<svg width="21" height="21" viewBox="0 0 21 21" fill="none" xmlns="http://www.w3.org/2000/svg">
<path d="M9.66728 15.0398L9.94443 15.3169L10.2797 15.1139C11.3694 14.4544 12.3695 13.673 13.2796 12.7704L13.2797 12.7703C14.1901 11.8668 14.9501 10.8951 15.5569 9.8548L15.7501 9.52362L15.4804 9.25113L13.4595 7.20946L13.4577 7.20764C13.395 7.14493 13.3658 7.08642 13.3528 7.02754C13.3336 6.93858 13.3284 6.82574 13.3478 6.68319L13.8874 3.77749L13.8893 3.76724L13.8908 3.75691C13.9008 3.6872 13.927 3.6401 13.9833 3.59401C14.0482 3.54089 14.1104 3.51953 14.1875 3.51953H17.5625C17.6888 3.51953 17.7672 3.55632 17.8339 3.62308C17.9007 3.68985 17.9375 3.76821 17.9375 3.89453C17.9375 5.60913 17.5558 7.28321 16.7866 8.92115L16.7865 8.92133C16.0125 10.5712 14.9903 12.0302 13.719 13.3009L13.7189 13.3011C12.4481 14.5723 10.9894 15.5945 9.34008 16.3686L9.34001 16.3686C7.70148 17.1378 6.0271 17.5195 4.3125 17.5195C4.18618 17.5195 4.10782 17.4827 4.04105 17.416C3.97428 17.3492 3.9375 17.2709 3.9375 17.1445V13.7695C3.9375 13.693 3.95828 13.6384 4.00462 13.5841C4.05519 13.5253 4.11638 13.487 4.20673 13.4672L7.06254 12.8878C7.17463 12.8737 7.29388 12.8834 7.42505 12.9237C7.5633 12.967 7.65123 13.0237 7.70895 13.0814L9.66728 15.0398ZM15.5631 8.37308L16.0819 8.89184L16.375 8.21932C16.6233 7.64973 16.8139 7.07102 16.9461 6.48345C17.0748 5.91152 17.1749 5.33259 17.2463 4.74673L17.3147 4.1862H16.75H14.8958H14.4781L14.4038 4.59722L14.0496 6.55555L14.0031 6.81305L14.1881 6.99808L15.5631 8.37308ZM8.65813 15.9362L9.33064 15.6431L8.81189 15.1243L7.41605 13.7285L7.22637 13.5388L6.96344 13.5919L5.00511 13.9878L4.60417 14.0688V14.4779V16.3112V16.8491L5.14065 16.8099C5.73862 16.7661 6.33259 16.6713 6.9223 16.5258L6.92241 16.5258C7.51253 16.38 8.09117 16.1833 8.65813 15.9362Z" fill="#112546" stroke="#112546"/>
</svg>
