<svg xmlns="http://www.w3.org/2000/svg" xmlns:xlink="http://www.w3.org/1999/xlink" viewBox="0 0 50 50" fill="#FFFFFF">
  <path d="M25 2C12.316406 2 2 12.316406 2 25C2 37.683594 12.316406 48 25 48C37.683594 48 48 37.683594 48 25C48 12.316406 37.683594 2 25 2 Z M 35.707031 28.707031C35.511719 28.902344 35.257813 29 35 29C34.742188 29 34.488281 28.902344 34.292969 28.707031L25 19.414063L15.707031 28.707031C15.316406 29.097656 14.683594 29.097656 14.292969 28.707031C13.902344 28.316406 13.902344 27.683594 14.292969 27.292969L24.292969 17.292969C24.683594 16.902344 25.316406 16.902344 25.707031 17.292969L35.707031 27.292969C36.097656 27.683594 36.097656 28.316406 35.707031 28.707031Z" fill="#FFFFFF" />
</svg>