<svg width="36" height="36" viewBox="0 0 36 36" fill="none" xmlns="http://www.w3.org/2000/svg">
<rect x="0.5" y="0.519531" width="35" height="35" rx="17.5" fill="#112546"/>
<path d="M16.0464 23.8731L16.3236 24.1502L16.6589 23.9473C17.9596 23.16 19.1536 22.2272 20.2401 21.1495L20.2402 21.1494C21.3269 20.071 22.2334 18.9117 22.9569 17.6715L23.1501 17.3403L22.8804 17.0678L20.4554 14.6178L20.4536 14.616C20.3658 14.5282 20.3206 14.4412 20.3006 14.3504C20.2746 14.2297 20.2686 14.0815 20.2936 13.9L20.9416 10.4108L20.9435 10.4006L20.945 10.3902C20.9605 10.2816 21.0047 10.2026 21.0916 10.1315C21.1871 10.0534 21.284 10.0195 21.4 10.0195H25.45C25.6263 10.0195 25.7463 10.073 25.8464 10.1731C25.9465 10.2732 26 10.3932 26 10.5695C26 12.6425 25.5384 14.6658 24.6094 16.644L24.6093 16.6442C23.6756 18.6344 22.4423 20.3947 20.9085 21.9279L20.9084 21.9281C19.3752 23.4619 17.6151 24.6952 15.6256 25.6289L15.6255 25.6289C13.6466 26.558 11.6229 27.0195 9.55 27.0195C9.37368 27.0195 9.25365 26.9661 9.15355 26.866C9.05345 26.7659 9 26.6458 9 26.4695V22.4195C9 22.3041 9.03329 22.2154 9.10466 22.1319C9.18019 22.0441 9.27323 21.9871 9.40246 21.9589L12.8337 21.2627C12.9846 21.2431 13.1433 21.2562 13.3149 21.3091C13.4933 21.3649 13.6138 21.4404 13.6964 21.5231L16.0464 23.8731ZM23.1214 15.8731L23.6402 16.3918L23.9333 15.7193C24.2289 15.0414 24.4556 14.353 24.6128 13.6543C24.7665 12.9712 24.886 12.2798 24.9713 11.5801L25.0397 11.0195H24.475H22.25H21.8323L21.758 11.4305L21.333 13.7805L21.2864 14.0381L21.4714 14.2231L23.1214 15.8731ZM14.7248 24.9279L15.3973 24.6347L14.8786 24.116L13.2036 22.441L13.0139 22.2513L12.7509 22.3044L10.4009 22.7794L10 22.8605V23.2695V25.4695V26.0075L10.5365 25.9682C11.2483 25.9161 11.9555 25.8033 12.6578 25.63L12.6579 25.6299C13.3605 25.4564 14.0495 25.2222 14.7248 24.9279Z" fill="black" stroke="white"/>
</svg>
