<svg width="216" height="177" viewBox="0 0 216 177" fill="none" xmlns="http://www.w3.org/2000/svg">
<g clip-path="url(#clip0_54_25819)">
<path d="M170.568 15.3016C170.325 15.1492 170.08 15.0047 169.837 14.8576C162.82 10.6318 155.298 7.19889 147.429 4.62966L145.604 28.3328H134.035V1.16955C133.307 1.02768 132.573 0.893687 131.84 0.767578V28.3328H118.092C110.524 28.3328 103.266 25.502 97.9144 20.4631C92.5629 15.4242 89.5565 8.58993 89.5565 1.46383V1.46381C88.8199 1.61356 88.0888 1.77382 87.3578 1.9446V28.3328H76.1606L74.4223 5.73048C66.3347 8.65103 58.6567 12.4917 51.5592 17.167C51.4364 17.2458 51.3136 17.3272 51.1937 17.406C50.577 17.8133 49.9688 18.2284 49.3633 18.6487V109.077H82.3633L81.7801 101.471L78.5714 59.7102H143.19L139.981 101.471L139.398 109.077H172.033V16.2159C171.547 15.9059 171.059 15.6011 170.568 15.3016ZM87.3578 52.8137H78.0412L76.3196 30.4031H87.3578V52.8137ZM131.84 52.8137H116.192V52.3697C116.192 52.1562 116.147 51.9449 116.06 51.7477C115.974 51.5505 115.846 51.3714 115.686 51.2206C115.526 51.0698 115.335 50.9503 115.126 50.8688C114.916 50.7874 114.691 50.7457 114.465 50.746H107.662C107.436 50.7459 107.212 50.7879 107.002 50.8694C106.793 50.951 106.603 51.0706 106.443 51.2214C106.283 51.3722 106.156 51.5512 106.069 51.7482C105.982 51.9452 105.938 52.1564 105.938 52.3697V52.8137H89.5565V30.4031H131.84V52.8137ZM134.035 52.8137V30.4031H145.445L143.723 52.8137H134.035Z" fill="#F2F2F2"/>
<path d="M206.407 165.116L206.625 160.498C208.899 159.354 211.435 158.749 214.013 158.737C210.464 161.469 210.908 166.734 208.502 170.407C207.743 171.548 206.72 172.512 205.511 173.23C204.302 173.947 202.936 174.4 201.516 174.553L198.547 176.265C198.139 174.126 198.229 171.929 198.81 169.827C199.391 167.724 200.449 165.764 201.912 164.084C202.742 163.148 203.694 162.315 204.746 161.604C205.457 163.37 206.407 165.116 206.407 165.116Z" fill="#F2F2F2"/>
<path d="M47.0989 160.056L39.9335 158.013C38.9937 154.418 39.0002 150.661 39.9522 147.069C42.903 153.036 51.3341 154.402 56.1932 159.133C57.6967 160.619 58.8257 162.405 59.4965 164.358C60.1673 166.312 60.3627 168.382 60.0683 170.416L61.6367 175.192C58.1265 174.954 54.7129 174.001 51.6312 172.401C48.5495 170.801 45.8729 168.59 43.7858 165.922C42.6306 164.414 41.6818 162.776 40.9616 161.045C44.0006 160.72 47.0989 160.056 47.0989 160.056Z" fill="#F2F2F2"/>
<path d="M200.831 175.51C200.83 175.649 200.771 175.783 200.667 175.883C200.615 175.931 200.553 175.97 200.486 175.996C200.418 176.022 200.346 176.035 200.273 176.035H198.03C197.956 176.035 197.884 176.022 197.816 175.996C197.748 175.969 197.686 175.931 197.635 175.882C197.583 175.833 197.542 175.775 197.514 175.711C197.486 175.647 197.471 175.579 197.472 175.51V111.63C197.472 110.222 196.969 109.079 196.353 109.077H28.2446C27.6252 109.079 27.1257 110.222 27.123 111.63V175.118C27.1225 175.249 27.0706 175.374 26.9773 175.471C26.884 175.568 26.7559 175.628 26.6179 175.641C26.1659 175.683 25.7139 175.72 25.2647 175.754C25.2535 175.754 25.2423 175.757 25.2312 175.757C24.9856 175.778 24.7401 175.793 24.4946 175.812H24.4918C24.3634 175.594 24.2407 175.37 24.1151 175.147C24.0748 175.071 24.0538 174.988 24.0537 174.903V108.317C24.0537 107.929 24.0705 107.537 24.0984 107.151C24.1382 106.621 24.208 106.093 24.3076 105.569C24.7792 103.129 25.845 101.476 27.056 101.471H197.539C197.715 101.472 197.89 101.507 198.052 101.573C198.29 101.672 198.505 101.814 198.685 101.991C198.93 102.23 199.139 102.5 199.308 102.792C199.905 103.783 200.332 105.259 200.482 106.977C200.482 106.993 200.485 107.009 200.485 107.025C200.524 107.45 200.544 107.884 200.541 108.317L200.58 113.948L200.605 117.305L200.68 127.841L200.708 131.582L200.831 175.51Z" fill="#E6E6E6"/>
<path d="M215.668 176.687L138.728 176.767C138.64 176.767 138.556 176.734 138.493 176.675C138.431 176.617 138.396 176.537 138.396 176.455C138.396 176.372 138.431 176.292 138.493 176.234C138.556 176.175 138.64 176.142 138.728 176.142L215.668 176.061C215.756 176.061 215.84 176.094 215.902 176.153C215.965 176.212 215.999 176.291 215.999 176.374C215.999 176.457 215.965 176.536 215.902 176.595C215.84 176.653 215.756 176.686 215.668 176.687Z" fill="#CACACA"/>
<path d="M120.166 82.8066H106.539C106.347 82.8069 106.162 82.8793 106.026 83.0078C105.89 83.1363 105.813 83.3105 105.813 83.492V103.761H120.894V83.492C120.894 83.402 120.876 83.3128 120.839 83.2297C120.802 83.1465 120.749 83.0709 120.681 83.0073C120.614 82.9436 120.533 82.8931 120.445 82.8587C120.357 82.8243 120.262 82.8066 120.166 82.8066ZM113.399 94.3234C112.973 94.3216 112.564 94.1613 112.263 93.8776C111.962 93.5939 111.792 93.2096 111.79 92.8083V90.4704C111.79 90.0686 111.959 89.6832 112.261 89.399C112.563 89.1149 112.972 88.9553 113.399 88.9553C113.826 88.9553 114.235 89.1149 114.537 89.399C114.838 89.6832 115.008 90.0686 115.008 90.4704V92.8083C115.006 93.2096 114.836 93.5939 114.534 93.8776C114.233 94.1613 113.825 94.3216 113.399 94.3234Z" fill="#2F2E41"/>
<path d="M142.731 51.1743H84.4807C83.9802 51.1751 83.5005 51.3626 83.1466 51.6958C82.7927 52.029 82.5936 52.4807 82.5928 52.952V89.9635C82.5933 90.4348 82.7923 90.8867 83.1463 91.22C83.5002 91.5533 83.9801 91.7407 84.4807 91.7412H142.731C143.231 91.7407 143.711 91.5533 144.065 91.22C144.419 90.8867 144.618 90.4348 144.618 89.9635V52.952C144.618 52.4807 144.419 52.029 144.065 51.6958C143.711 51.3626 143.231 51.1751 142.731 51.1743Z" fill="#3F3D56"/>
<path d="M142.244 52.458H84.9667C84.6987 52.4586 84.4419 52.5592 84.2527 52.7378C84.0634 52.9164 83.9571 53.1583 83.957 53.4107V89.5049C83.9575 89.7569 84.064 89.9984 84.2533 90.1766C84.4425 90.3548 84.699 90.4551 84.9667 90.4556H142.244C142.511 90.4551 142.768 90.3548 142.957 90.1766C143.146 89.9984 143.253 89.7569 143.253 89.5049V53.4107C143.253 53.1584 143.147 52.9164 142.958 52.7378C142.768 52.5592 142.512 52.4586 142.244 52.458Z" fill="white"/>
<path d="M105.767 103.113V105.069C105.767 105.17 105.81 105.267 105.886 105.339C105.962 105.411 106.065 105.451 106.173 105.451H120.535C120.642 105.451 120.745 105.41 120.821 105.339C120.897 105.267 120.94 105.17 120.941 105.069V103.113H105.767Z" fill="#3F3D56"/>
<path d="M131.088 106.132H97.0116C96.9183 106.132 96.8262 106.112 96.742 106.074C96.6578 106.036 96.5836 105.981 96.5248 105.913C96.4661 105.845 96.4242 105.765 96.4023 105.68C96.3804 105.595 96.379 105.506 96.3982 105.42L96.9269 103.055C96.957 102.923 97.0343 102.804 97.1459 102.719C97.2574 102.634 97.3966 102.587 97.5403 102.586H130.56C130.703 102.587 130.843 102.634 130.954 102.719C131.066 102.804 131.143 102.923 131.173 103.055L131.702 105.42C131.721 105.506 131.72 105.595 131.698 105.68C131.676 105.765 131.634 105.845 131.575 105.913C131.516 105.981 131.442 106.036 131.358 106.074C131.274 106.112 131.182 106.132 131.088 106.132Z" fill="#2F2E41"/>
<path d="M98.6955 103.012H97.9184C97.8432 103.012 97.7822 103.07 97.7822 103.14V103.477C97.7822 103.548 97.8432 103.605 97.9184 103.605H98.6955C98.7708 103.605 98.8318 103.548 98.8318 103.477V103.14C98.8318 103.07 98.7708 103.012 98.6955 103.012Z" fill="#3F3D56"/>
<path d="M100.794 103.012H100.017C99.9418 103.012 99.8809 103.07 99.8809 103.14V103.477C99.8809 103.548 99.9418 103.605 100.017 103.605H100.794C100.869 103.605 100.93 103.548 100.93 103.477V103.14C100.93 103.07 100.869 103.012 100.794 103.012Z" fill="#3F3D56"/>
<path d="M102.894 103.012H102.117C102.041 103.012 101.98 103.07 101.98 103.14V103.477C101.98 103.548 102.041 103.605 102.117 103.605H102.894C102.969 103.605 103.03 103.548 103.03 103.477V103.14C103.03 103.07 102.969 103.012 102.894 103.012Z" fill="#3F3D56"/>
<path d="M104.992 103.012H104.215C104.14 103.012 104.079 103.07 104.079 103.14V103.477C104.079 103.548 104.14 103.605 104.215 103.605H104.992C105.068 103.605 105.129 103.548 105.129 103.477V103.14C105.129 103.07 105.068 103.012 104.992 103.012Z" fill="#3F3D56"/>
<path d="M107.092 103.012H106.315C106.24 103.012 106.179 103.07 106.179 103.14V103.477C106.179 103.548 106.24 103.605 106.315 103.605H107.092C107.167 103.605 107.228 103.548 107.228 103.477V103.14C107.228 103.07 107.167 103.012 107.092 103.012Z" fill="#3F3D56"/>
<path d="M109.191 103.012H108.414C108.338 103.012 108.277 103.07 108.277 103.14V103.477C108.277 103.548 108.338 103.605 108.414 103.605H109.191C109.266 103.605 109.327 103.548 109.327 103.477V103.14C109.327 103.07 109.266 103.012 109.191 103.012Z" fill="#3F3D56"/>
<path d="M111.29 103.012H110.513C110.438 103.012 110.377 103.07 110.377 103.14V103.477C110.377 103.548 110.438 103.605 110.513 103.605H111.29C111.365 103.605 111.426 103.548 111.426 103.477V103.14C111.426 103.07 111.365 103.012 111.29 103.012Z" fill="#3F3D56"/>
<path d="M113.389 103.012H112.612C112.537 103.012 112.476 103.07 112.476 103.14V103.477C112.476 103.548 112.537 103.605 112.612 103.605H113.389C113.464 103.605 113.525 103.548 113.525 103.477V103.14C113.525 103.07 113.464 103.012 113.389 103.012Z" fill="#3F3D56"/>
<path d="M115.488 103.012H114.71C114.635 103.012 114.574 103.07 114.574 103.14V103.477C114.574 103.548 114.635 103.605 114.71 103.605H115.488C115.563 103.605 115.624 103.548 115.624 103.477V103.14C115.624 103.07 115.563 103.012 115.488 103.012Z" fill="#3F3D56"/>
<path d="M117.587 103.012H116.81C116.735 103.012 116.674 103.07 116.674 103.14V103.477C116.674 103.548 116.735 103.605 116.81 103.605H117.587C117.662 103.605 117.723 103.548 117.723 103.477V103.14C117.723 103.07 117.662 103.012 117.587 103.012Z" fill="#3F3D56"/>
<path d="M119.686 103.012H118.909C118.833 103.012 118.772 103.07 118.772 103.14V103.477C118.772 103.548 118.833 103.605 118.909 103.605H119.686C119.761 103.605 119.822 103.548 119.822 103.477V103.14C119.822 103.07 119.761 103.012 119.686 103.012Z" fill="#3F3D56"/>
<path d="M121.785 103.012H121.008C120.933 103.012 120.872 103.07 120.872 103.14V103.477C120.872 103.548 120.933 103.605 121.008 103.605H121.785C121.861 103.605 121.922 103.548 121.922 103.477V103.14C121.922 103.07 121.861 103.012 121.785 103.012Z" fill="#3F3D56"/>
<path d="M123.884 103.012H123.107C123.032 103.012 122.971 103.07 122.971 103.14V103.477C122.971 103.548 123.032 103.605 123.107 103.605H123.884C123.959 103.605 124.02 103.548 124.02 103.477V103.14C124.02 103.07 123.959 103.012 123.884 103.012Z" fill="#3F3D56"/>
<path d="M125.984 103.012H125.207C125.131 103.012 125.07 103.07 125.07 103.14V103.477C125.07 103.548 125.131 103.605 125.207 103.605H125.984C126.059 103.605 126.12 103.548 126.12 103.477V103.14C126.12 103.07 126.059 103.012 125.984 103.012Z" fill="#3F3D56"/>
<path d="M128.082 103.012H127.305C127.23 103.012 127.169 103.07 127.169 103.14V103.477C127.169 103.548 127.23 103.605 127.305 103.605H128.082C128.157 103.605 128.218 103.548 128.218 103.477V103.14C128.218 103.07 128.157 103.012 128.082 103.012Z" fill="#3F3D56"/>
<path d="M130.181 103.012H129.404C129.329 103.012 129.268 103.07 129.268 103.14V103.477C129.268 103.548 129.329 103.605 129.404 103.605H130.181C130.256 103.605 130.317 103.548 130.317 103.477V103.14C130.317 103.07 130.256 103.012 130.181 103.012Z" fill="#3F3D56"/>
<path d="M98.6711 104H97.894C97.8188 104 97.7578 104.058 97.7578 104.129V104.465C97.7578 104.536 97.8188 104.593 97.894 104.593H98.6711C98.7464 104.593 98.8073 104.536 98.8073 104.465V104.129C98.8073 104.058 98.7464 104 98.6711 104Z" fill="#3F3D56"/>
<path d="M100.77 104H99.9927C99.9174 104 99.8564 104.058 99.8564 104.129V104.465C99.8564 104.536 99.9174 104.593 99.9927 104.593H100.77C100.845 104.593 100.906 104.536 100.906 104.465V104.129C100.906 104.058 100.845 104 100.77 104Z" fill="#3F3D56"/>
<path d="M102.868 104H102.091C102.016 104 101.955 104.058 101.955 104.129V104.465C101.955 104.536 102.016 104.593 102.091 104.593H102.868C102.944 104.593 103.005 104.536 103.005 104.465V104.129C103.005 104.058 102.944 104 102.868 104Z" fill="#3F3D56"/>
<path d="M104.968 104H104.191C104.116 104 104.055 104.058 104.055 104.129V104.465C104.055 104.536 104.116 104.593 104.191 104.593H104.968C105.043 104.593 105.104 104.536 105.104 104.465V104.129C105.104 104.058 105.043 104 104.968 104Z" fill="#3F3D56"/>
<path d="M107.067 104H106.29C106.214 104 106.153 104.058 106.153 104.129V104.465C106.153 104.536 106.214 104.593 106.29 104.593H107.067C107.142 104.593 107.203 104.536 107.203 104.465V104.129C107.203 104.058 107.142 104 107.067 104Z" fill="#3F3D56"/>
<path d="M109.166 104H108.389C108.314 104 108.253 104.058 108.253 104.129V104.465C108.253 104.536 108.314 104.593 108.389 104.593H109.166C109.241 104.593 109.302 104.536 109.302 104.465V104.129C109.302 104.058 109.241 104 109.166 104Z" fill="#3F3D56"/>
<path d="M111.265 104H110.488C110.413 104 110.352 104.058 110.352 104.129V104.465C110.352 104.536 110.413 104.593 110.488 104.593H111.265C111.34 104.593 111.401 104.536 111.401 104.465V104.129C111.401 104.058 111.34 104 111.265 104Z" fill="#3F3D56"/>
<path d="M113.364 104H112.587C112.512 104 112.451 104.058 112.451 104.129V104.465C112.451 104.536 112.512 104.593 112.587 104.593H113.364C113.44 104.593 113.501 104.536 113.501 104.465V104.129C113.501 104.058 113.44 104 113.364 104Z" fill="#3F3D56"/>
<path d="M115.463 104H114.686C114.611 104 114.55 104.058 114.55 104.129V104.465C114.55 104.536 114.611 104.593 114.686 104.593H115.463C115.538 104.593 115.599 104.536 115.599 104.465V104.129C115.599 104.058 115.538 104 115.463 104Z" fill="#3F3D56"/>
<path d="M117.562 104H116.785C116.709 104 116.648 104.058 116.648 104.129V104.465C116.648 104.536 116.709 104.593 116.785 104.593H117.562C117.637 104.593 117.698 104.536 117.698 104.465V104.129C117.698 104.058 117.637 104 117.562 104Z" fill="#3F3D56"/>
<path d="M119.661 104H118.884C118.809 104 118.748 104.058 118.748 104.129V104.465C118.748 104.536 118.809 104.593 118.884 104.593H119.661C119.737 104.593 119.798 104.536 119.798 104.465V104.129C119.798 104.058 119.737 104 119.661 104Z" fill="#3F3D56"/>
<path d="M121.76 104H120.983C120.908 104 120.847 104.058 120.847 104.129V104.465C120.847 104.536 120.908 104.593 120.983 104.593H121.76C121.835 104.593 121.896 104.536 121.896 104.465V104.129C121.896 104.058 121.835 104 121.76 104Z" fill="#3F3D56"/>
<path d="M123.86 104H123.083C123.007 104 122.946 104.058 122.946 104.129V104.465C122.946 104.536 123.007 104.593 123.083 104.593H123.86C123.935 104.593 123.996 104.536 123.996 104.465V104.129C123.996 104.058 123.935 104 123.86 104Z" fill="#3F3D56"/>
<path d="M125.958 104H125.181C125.106 104 125.045 104.058 125.045 104.129V104.465C125.045 104.536 125.106 104.593 125.181 104.593H125.958C126.033 104.593 126.094 104.536 126.094 104.465V104.129C126.094 104.058 126.033 104 125.958 104Z" fill="#3F3D56"/>
<path d="M128.058 104H127.281C127.206 104 127.145 104.058 127.145 104.129V104.465C127.145 104.536 127.206 104.593 127.281 104.593H128.058C128.133 104.593 128.194 104.536 128.194 104.465V104.129C128.194 104.058 128.133 104 128.058 104Z" fill="#3F3D56"/>
<path d="M130.156 104H129.379C129.304 104 129.243 104.058 129.243 104.129V104.465C129.243 104.536 129.304 104.593 129.379 104.593H130.156C130.232 104.593 130.293 104.536 130.293 104.465V104.129C130.293 104.058 130.232 104 130.156 104Z" fill="#3F3D56"/>
<path d="M116.093 105.187H107.969C107.894 105.187 107.833 105.244 107.833 105.315V105.651C107.833 105.722 107.894 105.779 107.969 105.779H116.093C116.168 105.779 116.229 105.722 116.229 105.651V105.315C116.229 105.244 116.168 105.187 116.093 105.187Z" fill="#3F3D56"/>
<path d="M139.366 57.4311H85.7722C85.7165 57.43 85.6634 57.4084 85.6244 57.3709C85.5853 57.3334 85.5635 57.283 85.5635 57.2305C85.5635 57.1779 85.5853 57.1275 85.6244 57.09C85.6634 57.0525 85.7165 57.0309 85.7722 57.0298H139.366C139.422 57.0309 139.475 57.0525 139.514 57.09C139.553 57.1275 139.575 57.1779 139.575 57.2305C139.575 57.283 139.553 57.3334 139.514 57.3709C139.475 57.4084 139.422 57.43 139.366 57.4311Z" fill="#CACACA"/>
<path d="M89.4199 56.0052C90.1098 56.0052 90.669 55.4669 90.669 54.8029C90.669 54.1389 90.1098 53.6006 89.4199 53.6006C88.7301 53.6006 88.1709 54.1389 88.1709 54.8029C88.1709 55.4669 88.7301 56.0052 89.4199 56.0052Z" fill="#3F3D56"/>
<path d="M93.7344 56.0052C94.4242 56.0052 94.9834 55.4669 94.9834 54.8029C94.9834 54.1389 94.4242 53.6006 93.7344 53.6006C93.0446 53.6006 92.4854 54.1389 92.4854 54.8029C92.4854 55.4669 93.0446 56.0052 93.7344 56.0052Z" fill="#3F3D56"/>
<path d="M98.0498 56.0052C98.7396 56.0052 99.2988 55.4669 99.2988 54.8029C99.2988 54.1389 98.7396 53.6006 98.0498 53.6006C97.36 53.6006 96.8008 54.1389 96.8008 54.8029C96.8008 55.4669 97.36 56.0052 98.0498 56.0052Z" fill="#3F3D56"/>
<path d="M136.768 53.8984H133.703C133.642 53.8996 133.584 53.9231 133.542 53.964C133.499 54.0048 133.476 54.0597 133.476 54.117C133.476 54.1742 133.499 54.2291 133.542 54.27C133.584 54.3108 133.642 54.3343 133.703 54.3355H136.768C136.829 54.3343 136.887 54.3108 136.929 54.27C136.972 54.2291 136.996 54.1742 136.996 54.117C136.996 54.0597 136.972 54.0048 136.929 53.964C136.887 53.9231 136.829 53.8996 136.768 53.8984Z" fill="#3F3D56"/>
<path d="M136.768 54.7188H133.703C133.642 54.7199 133.584 54.7434 133.542 54.7843C133.499 54.8251 133.476 54.8801 133.476 54.9373C133.476 54.9945 133.499 55.0494 133.542 55.0903C133.584 55.1311 133.642 55.1547 133.703 55.1558H136.768C136.829 55.1547 136.887 55.1311 136.929 55.0903C136.972 55.0494 136.996 54.9945 136.996 54.9373C136.996 54.8801 136.972 54.8251 136.929 54.7843C136.887 54.7434 136.829 54.7199 136.768 54.7188Z" fill="#3F3D56"/>
<path d="M136.768 55.5381H133.703C133.642 55.5392 133.584 55.5628 133.542 55.6036C133.499 55.6445 133.476 55.6994 133.476 55.7566C133.476 55.8138 133.499 55.8688 133.542 55.9096C133.584 55.9505 133.642 55.974 133.703 55.9751H136.768C136.829 55.974 136.887 55.9505 136.929 55.9096C136.972 55.8688 136.996 55.8138 136.996 55.7566C136.996 55.6994 136.972 55.6445 136.929 55.6036C136.887 55.5628 136.829 55.5392 136.768 55.5381Z" fill="#3F3D56"/>
<path d="M116.85 69.1553H110.153C109.65 69.1553 109.242 69.5392 109.242 70.0129V70.0129C109.242 70.4865 109.65 70.8704 110.153 70.8704H116.85C117.353 70.8704 117.761 70.4865 117.761 70.0129V70.0129C117.761 69.5392 117.353 69.1553 116.85 69.1553Z" fill="#112546"/>
<path d="M121.176 72.5854H105.827C105.324 72.5854 104.916 72.9694 104.916 73.443V73.443C104.916 73.9167 105.324 74.3006 105.827 74.3006H121.176C121.679 74.3006 122.087 73.9167 122.087 73.443C122.087 72.9694 121.679 72.5854 121.176 72.5854Z" fill="#E6E6E6"/>
<path d="M121.176 76.0156H105.827C105.324 76.0156 104.916 76.3996 104.916 76.8732C104.916 77.3468 105.324 77.7308 105.827 77.7308H121.176C121.679 77.7308 122.087 77.3468 122.087 76.8732C122.087 76.3996 121.679 76.0156 121.176 76.0156Z" fill="#E6E6E6"/>
<path d="M86.2948 108.711H69.5535C68.9615 108.711 68.3937 108.933 67.9751 109.327C67.5565 109.721 67.3213 110.256 67.3213 110.813C67.3213 111.371 67.5565 111.905 67.9751 112.299C68.3937 112.694 68.9615 112.915 69.5535 112.915H75.692V129.204H80.1563V112.915H86.2948C86.8868 112.915 87.4546 112.694 87.8732 112.299C88.2918 111.905 88.527 111.371 88.527 110.813C88.527 110.256 88.2918 109.721 87.8732 109.327C87.4546 108.933 86.8868 108.711 86.2948 108.711Z" fill="#3F3D56"/>
<path d="M97.3442 138.225H52.5659C48.2249 138.21 44.0344 136.725 40.76 134.042C37.4857 131.358 35.346 127.655 34.7317 123.608L33.1467 118.118C29.866 106.742 24.8688 95.8681 18.3079 85.8284C15.3092 81.2428 13.7657 76.804 17.2714 72.5304C17.3012 72.494 17.3306 72.4581 17.3595 72.4228C20.1712 68.9768 34.1662 68.2308 38.7285 68.0857C38.9088 68.08 39.0897 68.0771 39.2713 68.0771H67.123C67.3048 68.0771 67.4856 68.08 67.6657 68.0857C70.1251 68.1533 72.5193 68.8464 74.5941 70.0917C76.669 71.3369 78.3471 73.0878 79.4505 75.1586C80.6279 77.2728 81.1755 79.6476 81.0352 82.0312C80.8949 84.4147 80.072 86.7181 78.6537 88.6968C68.8702 102.535 65.8748 111.212 68.9414 116.831C71.9078 122.266 81.0008 125.045 97.5576 125.576C102.007 125.718 104.049 128.981 104.063 131.951C104.077 134.845 102.114 138.04 97.7705 138.217C97.6294 138.222 97.4873 138.225 97.3442 138.225Z" fill="#3F3D56"/>
<path d="M60.1736 175.664H76.9149C77.5069 175.664 78.0747 175.442 78.4933 175.048C78.9119 174.654 79.1471 174.119 79.1471 173.562C79.1471 173.005 78.9119 172.47 78.4933 172.076C78.0747 171.682 77.5069 171.46 76.9149 171.46H70.7764V135.992H66.3121V171.46H60.1736C59.5816 171.46 59.0138 171.682 58.5952 172.076C58.1766 172.47 57.9414 173.005 57.9414 173.562C57.9414 174.119 58.1766 174.654 58.5952 175.048C59.0138 175.442 59.5816 175.664 60.1736 175.664Z" fill="#3F3D56"/>
<path d="M58.8365 69.3937L59.1875 71.4017C59.3535 72.3754 59.9547 79.2535 59.5093 80.0741C59.47 78.542 56.44 76.1332 54.4768 76.6832L51.3957 77.3278L49.4834 77.7284L47.927 78.0497L43.4043 78.9801C43.3964 78.9306 43.3907 78.8781 43.3828 78.8287C43.3721 78.7664 43.3614 78.7041 43.348 78.6423C43.2638 78.2429 43.1102 77.8593 42.8934 77.507C42.8705 77.979 42.7225 78.438 42.463 78.8423C42.4559 78.8528 42.4498 78.8639 42.4446 78.8754C42.3642 78.9978 42.2756 79.1152 42.1792 79.2269C42.1747 79.2298 42.1707 79.2333 42.1672 79.2372C42.1672 79.2372 41.2379 65.2891 41.3353 65.1604C41.4065 65.0688 41.4783 64.9799 41.5534 64.8931C41.628 64.8036 41.7004 64.7173 41.7782 64.6298C41.7882 64.6216 41.7966 64.6118 41.8032 64.6009C42.0212 64.3579 42.2521 64.1255 42.4949 63.9045C42.5663 63.8398 42.6404 63.7745 42.7145 63.7093C43.846 62.7235 45.1979 61.9893 46.6706 61.5606C46.8367 61.5125 47.0094 61.4685 47.1849 61.424C47.3581 61.3826 47.5347 61.3432 47.7124 61.309L47.7725 61.2974C47.8573 61.281 47.9453 61.2668 48.0306 61.253C48.1378 61.2351 48.2455 61.2196 48.351 61.2074C49.7213 61.0215 51.1172 61.0954 52.4567 61.4246C52.4595 61.4241 52.46 61.4267 52.4628 61.4262C53.5809 61.7013 54.6437 62.1469 55.6089 62.7455C57.2784 63.7834 57.9283 65.4764 58.3898 67.3773C58.5516 68.03 58.6877 68.709 58.8365 69.3937Z" fill="#2F2E41"/>
<path d="M75.3262 161.365L78.2101 162.84L85.8448 152.901L81.588 150.724L75.3262 161.365Z" fill="#FFB6B6"/>
<path d="M76.7137 157.823L81.9493 159.367L81.116 161.432L84.7061 166.339C84.8835 166.581 84.9739 166.87 84.9642 167.164C84.9546 167.458 84.8453 167.742 84.6524 167.974C84.4595 168.205 84.1931 168.372 83.8919 168.451C83.5908 168.53 83.2708 168.516 82.9787 168.412L76.8838 166.231L76.6575 163.813L75.423 165.709L73.125 164.887L76.7137 157.823Z" fill="#2F2E41"/>
<path d="M91.6616 116.908C91.2013 117.014 90.722 117.023 90.2575 116.935C89.793 116.847 89.3546 116.665 88.9731 116.4C88.5916 116.136 88.2764 115.796 88.0496 115.404C87.8229 115.012 87.69 114.579 87.6605 114.133L63.0615 105.801L67.576 102.102L90.924 110.855C91.7216 110.858 92.4904 111.136 93.0846 111.637C93.6789 112.138 94.0574 112.827 94.1483 113.573C94.2392 114.319 94.0363 115.071 93.578 115.686C93.1197 116.3 92.4378 116.735 91.6616 116.908Z" fill="#FFB6B6"/>
<path d="M56.1893 85.1577C56.1893 85.1577 52.0463 85.2437 51.6779 89.6974C51.3096 94.151 60.3497 105.167 61.7503 106.984C63.1509 108.8 78.7083 111.036 78.7083 111.036L83.9969 107.421C78.4399 104.031 73.3684 101.431 69.9648 101.548L56.1893 85.1577Z" fill="#112546"/>
<path d="M51.1084 104.809L52.118 108.894C52.118 108.894 52.1279 112.66 52.8362 113.354C53.5396 114.045 69.0071 112.658 69.0071 112.658C69.0071 112.658 67.3671 106.589 67.389 101.997L51.1084 104.809Z" fill="#FFB6B6"/>
<path d="M83.7843 157.053L78.2039 154.163C78.0977 147.325 82.4654 138.073 87.6459 128.381C76.06 130.257 65.1298 130.858 55.6757 128.588C54.1236 128.203 52.7951 127.257 51.9774 125.956C51.1596 124.656 50.9182 123.104 51.3054 121.637C51.3422 121.493 51.3848 121.351 51.4331 121.21C52.5646 117.959 50.0275 115.922 52.361 112.346C58.4985 110.373 64.3288 109.815 69.6604 111.558L73.001 118.513L89.5589 116.496C90.3588 116.405 91.1698 116.465 91.9451 116.672C92.7203 116.878 93.4445 117.227 94.076 117.698C94.7074 118.17 95.2335 118.754 95.624 119.417C96.0145 120.081 96.2617 120.811 96.3513 121.564C96.3735 121.734 96.388 121.904 96.3949 122.074C93.0468 136.853 89.2927 150.151 83.7843 157.053Z" fill="#2F2E41"/>
<path d="M51.8749 76.585C55.6198 75.8635 58.0344 72.42 57.2682 68.8939C56.5019 65.3677 52.8449 63.0941 49.1 63.8156C45.3551 64.5372 42.9405 67.9806 43.7068 71.5067C44.4731 75.0329 48.1301 77.3065 51.8749 76.585Z" fill="#FFB6B6"/>
<path d="M48.8609 78.9505L55.2397 78.5959C55.5087 78.5809 55.7759 78.6454 56.0042 78.7802C56.2324 78.915 56.4103 79.1136 56.5131 79.3481L58.3157 83.4628L65.8075 89.2933C65.8075 89.2933 68.7737 92.8474 68.7806 97.4376C68.7875 102.028 69.833 112.652 69.833 112.652C69.833 112.652 65.504 106.914 62.832 108.44C62.3774 108.7 62.2175 109.231 61.7413 109.499C61.5038 109.633 60.9551 109.503 60.7152 109.637C57.0333 111.695 53.1934 113.706 52.8346 113.353C52.1302 112.661 51.2756 109.124 51.2756 109.124L45.4368 88.9237C45.1202 87.8608 45.0573 86.7452 45.2527 85.6568C45.448 84.5684 45.8967 83.5342 46.5666 82.6283C46.9745 82.0875 47.4019 81.6852 47.7991 81.6187C48.6909 81.4399 48.2165 79.5579 48.8609 78.9505Z" fill="#112546"/>
<path d="M103.122 169.921L105.815 168.159L99.715 157.323L95.7412 159.924L103.122 169.921Z" fill="#FFB6B6"/>
<path d="M103.529 162.651L99.3093 166.202C92.5994 159.162 87.5269 149.289 83.2283 138.077C71.9653 134.971 63.4715 129.962 56.0566 124.014C53.5411 122.01 51.6554 119.435 53.8008 116.994C53.9011 116.879 54.0058 116.769 54.1149 116.662C56.648 114.211 63.0717 114.678 66.8341 112.433L75.2386 120.891L74.7099 123.159L90.4963 128.194C91.2558 128.445 91.9552 128.835 92.554 129.341C93.1528 129.848 93.6392 130.461 93.9851 131.145C94.331 131.829 94.5296 132.571 94.5694 133.328C94.6093 134.085 94.4895 134.842 94.2172 135.555C94.158 135.716 94.0917 135.875 94.0181 136.031L103.529 162.651Z" fill="#2F2E41"/>
<path d="M101.552 169.207L105.862 166.011L107.201 167.825L113.529 167.807C113.841 167.806 114.146 167.899 114.398 168.073C114.651 168.246 114.837 168.491 114.931 168.772C115.025 169.053 115.022 169.354 114.921 169.633C114.82 169.911 114.627 170.152 114.37 170.32L109.016 173.824L106.769 172.634L107.733 174.664L105.715 175.985L101.552 169.207Z" fill="#2F2E41"/>
<path d="M58.2804 129.859C57.8443 129.685 57.4541 129.422 57.1372 129.091C56.8204 128.759 56.5846 128.366 56.4466 127.939C56.3085 127.513 56.2715 127.063 56.3381 126.621C56.4047 126.179 56.5734 125.757 56.8322 125.383L42.3916 104.864L48.3588 104.437L61.5294 124.589C62.1672 125.04 62.6072 125.696 62.7659 126.432C62.9246 127.168 62.7911 127.933 62.3906 128.583C61.9901 129.232 61.3505 129.721 60.593 129.956C59.8355 130.191 59.0126 130.157 58.2804 129.859Z" fill="#FFB6B6"/>
<path d="M49.9767 84.4434C49.9767 84.4434 46.5997 82.1819 43.4787 85.5463C40.3577 88.9108 40.6183 102.83 40.5889 105.075C40.5797 105.778 41.6577 107.295 43.1428 109.046C43.8096 109.833 44.5584 110.667 45.3278 111.496C45.773 111.976 45.3894 112.974 45.8364 113.44C46.281 113.904 47.5564 113.836 47.9793 114.266C49.9866 116.309 51.6173 117.864 51.6173 117.864L58.1521 117.939C58.2258 113.365 54.8991 109.282 50.6253 105.336L49.9767 84.4434Z" fill="#112546"/>
<path d="M59.1377 67.0348C58.8816 67.1538 58.6332 67.2687 58.3891 67.3774C57.4097 67.8308 56.3976 68.2184 55.3603 68.5376C55.1876 68.0955 54.9243 67.6897 54.5852 67.3434C54.672 67.8217 54.6278 68.3129 54.4568 68.7706C52.8866 69.1368 51.2384 69.0769 49.7029 68.5978C50.7071 70.3486 51.449 74.0378 51.395 77.3279C51.3715 79.0675 51.1214 80.6952 50.5753 81.8651L49.8736 79.8549C49.8086 79.1368 49.6778 78.4254 49.4827 77.7285C49.0122 75.773 48.5729 77.0805 47.9263 78.0498L43.4036 78.9802C43.3957 78.9308 43.39 78.8783 43.3821 78.8288C43.3714 78.7665 43.3607 78.7042 43.3473 78.6425C43.2631 78.2431 43.1095 77.8595 42.8927 77.5072C42.8698 77.9791 42.7218 78.4381 42.4623 78.8425C42.4552 78.853 42.4491 78.8641 42.4439 78.8755C42.3635 78.9979 42.2749 79.1153 42.1785 79.227C42.174 79.2299 42.17 79.2334 42.1665 79.2374C39.2466 79.6053 37.1996 65.4269 41.3351 65.1631C41.4553 65.1554 41.4782 64.9827 41.5527 64.8932C41.6273 64.8038 41.6997 64.7174 41.7775 64.63C41.7875 64.6217 41.7959 64.6119 41.8025 64.601C42.0236 64.36 42.2523 64.1282 42.4942 63.9046C42.5656 63.8399 42.6397 63.7747 42.7138 63.7094C43.8488 62.7285 45.1998 61.9957 46.6704 61.5634C46.8366 61.5153 47.0087 61.4687 47.1842 61.4242C47.3574 61.3827 47.534 61.3433 47.7117 61.3091L47.7718 61.2975C47.8566 61.2812 47.9446 61.2669 48.0299 61.2532C48.137 61.2352 48.2448 61.2198 48.3503 61.2075C48.7467 61.3956 49.0858 61.6754 49.3359 62.0206L52.2253 61.4639C52.3018 61.4491 52.3789 61.437 52.4566 61.4274L52.4621 61.4263C56.0693 60.8573 58.3887 63.5883 59.1377 67.0348Z" fill="#2F2E41"/>
<path d="M43.39 64.5279C42.7713 64.9484 42.1204 65.3816 41.3655 65.4858C40.6106 65.5899 39.7268 65.2463 39.5178 64.5553C39.2624 63.7105 40.0726 62.9412 40.8008 62.3921L43.11 60.6511C43.5329 60.2979 44.0102 60.0073 44.5258 59.7891C44.7847 59.6818 45.066 59.6308 45.3488 59.6397C45.6315 59.6486 45.9085 59.7172 46.1593 59.8405C46.4075 59.9984 46.6086 60.2134 46.7436 60.4651C46.8785 60.7168 46.9428 60.9969 46.9302 61.2786C46.8973 61.8433 46.6994 62.3884 46.3584 62.8539C45.9297 63.483 45.3703 64.0239 44.7138 64.4441C44.0572 64.8643 43.3172 65.1551 42.5382 65.299" fill="#2F2E41"/>
<path d="M60.9042 109.762H44.1628C43.5708 109.762 43.0031 109.984 42.5845 110.378C42.1658 110.772 41.9307 111.307 41.9307 111.864C41.9307 112.421 42.1658 112.956 42.5845 113.35C43.0031 113.744 43.5708 113.966 44.1628 113.966H50.3013V130.255H54.7657V113.966H60.9042C61.4962 113.966 62.064 113.744 62.4826 113.35C62.9012 112.956 63.1364 112.421 63.1364 111.864C63.1364 111.307 62.9012 110.772 62.4826 110.378C62.064 109.984 61.4962 109.762 60.9042 109.762Z" fill="#3F3D56"/>
<path d="M122.753 176.424L0.332243 176.505C0.244298 176.504 0.160043 176.471 0.0979464 176.413C0.0358495 176.354 0.000976562 176.275 0.000976562 176.192C0.000976562 176.109 0.0358495 176.03 0.0979464 175.971C0.160043 175.912 0.244298 175.879 0.332243 175.879L122.753 175.798C122.841 175.799 122.926 175.832 122.988 175.89C123.05 175.949 123.085 176.028 123.085 176.111C123.085 176.194 123.05 176.273 122.988 176.332C122.926 176.391 122.841 176.424 122.753 176.424Z" fill="#CACACA"/>
<path d="M158.379 141.53L161.104 144.327L173.857 135.76L169.834 131.632L158.379 141.53Z" fill="#A0616A"/>
<path d="M164.02 145.488V145.485L163.744 142.692L163.618 142.637L162.884 142.309L159.422 140.767L159.349 140.693L158.654 139.979L154.807 143.305L160.019 148.654L163.593 152.321L163.713 152.216C164.203 151.794 164.599 151.284 164.88 150.717C165.16 150.15 165.32 149.537 165.348 148.912C165.377 148.287 165.274 147.663 165.046 147.075C164.818 146.488 164.47 145.948 164.02 145.488H164.02Z" fill="#2F2E41"/>
<path d="M144.26 169.427L148.116 170.531L154.471 157.048L148.779 155.42L144.26 169.427Z" fill="#A0616A"/>
<path d="M154.246 172.446C153.935 171.893 153.51 171.404 152.997 171.007C152.483 170.61 151.891 170.313 151.254 170.134L149.505 167.861L149.368 167.872L144.745 168.271L144.642 168.242L143.659 167.961L142.142 172.667L154.578 176.224L154.625 176.074C154.819 175.476 154.885 174.847 154.82 174.224C154.755 173.602 154.56 172.997 154.246 172.446Z" fill="#2F2E41"/>
<path d="M176.063 98.835C176.063 98.835 200.687 121.221 185.12 128.151H180.309C180.309 128.151 178.863 123.314 175.552 119.235C175.098 118.675 173.395 118.788 172.922 118.243C170.034 114.909 166.904 112.047 164.742 112.16L165.259 127.628L166.096 133.145C166.535 135.997 154.131 160.9 154.131 160.9L146.334 158.015C146.334 158.015 154.457 137.504 154.552 134.547L148.043 102.033L176.063 98.835Z" fill="#2F2E41"/>
<path d="M178.116 99.939C177.99 100.108 177.826 100.248 177.636 100.349C177.322 100.516 176.982 100.635 176.628 100.701C171.084 101.886 152.973 104.342 148.271 103.171C147.694 103.029 147.317 102.829 147.194 102.566C146.801 101.736 146.851 98.2287 147.083 93.9935C147.125 93.2001 148.054 92.341 148.11 91.5108C148.149 90.8881 147.314 90.3022 147.359 89.6691C147.666 85.3866 148.062 81.0227 148.327 78.2641C148.495 76.4907 148.609 75.382 148.609 75.382L145.749 58.402L145.883 58.1944L146.034 58.1235L155.255 53.8253L155.758 52.6168C155.903 52.2688 156.156 51.9699 156.484 51.7587C156.812 51.5475 157.199 51.4336 157.596 51.4319L163.671 51.4082C163.986 51.4066 164.297 51.4758 164.578 51.6102C164.859 51.7445 165.102 51.9401 165.286 52.1806L166.932 54.3271L177.814 60.8953L177.772 61.0161L172.666 75.6474L172.641 76.7876V76.7902L172.451 85.9594L172.979 87.2021L172.384 89.2408C172.384 89.2408 172.658 91.6237 174.123 93.3945C175.451 95.0024 177.142 96.6786 177.906 98.0395V98.0422C178.33 98.7936 178.473 99.4451 178.116 99.939Z" fill="#112546"/>
<path d="M186.302 126.82L184.985 128.386C184.985 128.386 172.88 136.361 172.465 137.106L170.552 138.81L165.923 134.151L168.33 131.31C170.256 129.037 172.745 127.243 175.579 126.085L179.268 123.003L186.302 126.82Z" fill="#2F2E41"/>
<path d="M178.61 104.44L176.406 84.349L175.824 76.0803L181.994 75.0298C181.994 75.0298 181.75 80.9422 182.558 84.278C183.356 87.5697 182.664 103.999 182.614 104.438C183.068 104.819 183.387 105.322 183.531 105.878C183.674 106.434 183.635 107.018 183.418 107.553C183.201 108.087 182.817 108.548 182.317 108.872C181.816 109.197 181.223 109.371 180.615 109.371C180.007 109.372 179.413 109.198 178.913 108.874C178.412 108.55 178.027 108.09 177.81 107.555C177.593 107.021 177.553 106.437 177.696 105.88C177.839 105.324 178.158 104.822 178.61 104.44Z" fill="#A0616A"/>
<path d="M184.628 88.5121L176.698 90.0578L176.005 87.4548L175.196 86.6473L173.581 78.6805L171.264 74.0137L171.866 58.0547L177.752 60.9939L177.759 60.9991C178.659 61.9192 179.279 63.2361 180.311 64.5576C183.562 68.7214 183.922 78.8393 183.824 84.3814C183.822 84.4723 183.919 84.5684 184.036 84.6694C184.59 85.1478 184.951 85.7914 185.059 86.4915C185.167 87.1916 185.015 87.9053 184.628 88.5121V88.5121Z" fill="#112546"/>
<path d="M142.699 105.228L144.904 85.1371L145.485 76.8684L139.316 75.8179C139.316 75.8179 139.56 81.7302 138.752 85.0661C137.954 88.3578 138.646 104.787 138.695 105.226C138.242 105.608 137.923 106.11 137.779 106.666C137.636 107.222 137.675 107.806 137.892 108.341C138.108 108.876 138.492 109.336 138.993 109.66C139.493 109.985 140.087 110.159 140.695 110.16C141.303 110.16 141.896 109.986 142.397 109.662C142.898 109.338 143.282 108.878 143.5 108.343C143.717 107.809 143.757 107.225 143.614 106.668C143.471 106.112 143.152 105.61 142.699 105.228Z" fill="#A0616A"/>
<path d="M150.046 74.8014L148.327 78.2641L147.727 79.4701L146.112 87.4359L145.305 88.2425L144.611 90.8461L144.284 90.783L138.397 89.6349L136.681 89.3013C136.294 88.6945 136.142 87.9806 136.25 87.2802C136.357 86.5799 136.719 85.936 137.272 85.4576C137.39 85.3577 137.487 85.2605 137.484 85.1686C137.387 79.6277 137.747 69.5101 140.997 65.3459C142.03 64.0244 142.649 62.7081 143.55 61.7886C143.553 61.7859 143.553 61.7833 143.556 61.7833L145.749 58.402L145.883 58.1945L146.034 58.1235L150.046 74.8014Z" fill="#112546"/>
<path d="M160.458 49.7796C164.922 49.7796 168.54 46.3725 168.54 42.1696C168.54 37.9667 164.922 34.5596 160.458 34.5596C155.994 34.5596 152.376 37.9667 152.376 42.1696C152.376 46.3725 155.994 49.7796 160.458 49.7796Z" fill="#A0616A"/>
<path d="M169.544 38.8316C169.516 37.5337 169.36 35.8733 168.394 34.5491C167.58 33.4352 165.936 32.5524 164.404 32.9938C164.421 32.7054 164.353 32.4181 164.208 32.1639C164.062 31.9098 163.844 31.6986 163.578 31.554C162.998 31.2204 162.3 31.16 161.684 31.1048C160.13 30.9682 158.52 30.8263 156.946 31.1074C155.18 31.4227 153.734 32.2792 152.984 33.4588L152.967 33.4956L152.814 34.1944C152.793 34.2882 152.751 34.3766 152.691 34.4537C152.631 34.5308 152.554 34.5947 152.465 34.6411C152.376 34.6881 152.277 34.716 152.175 34.7228C152.073 34.7296 151.971 34.7152 151.876 34.6805C151.772 34.6437 151.66 34.6332 151.55 34.6499C151.44 34.6666 151.337 34.71 151.25 34.7758C151.164 34.8416 151.097 34.9276 151.056 35.0251C151.016 35.1227 151.003 35.2285 151.02 35.3321L151.061 35.6105L150.618 35.5317C150.506 35.5114 150.391 35.5195 150.284 35.5551C150.177 35.5907 150.082 35.6525 150.009 35.7342C149.936 35.8158 149.888 35.9144 149.869 36.0197C149.849 36.125 149.861 36.2331 149.901 36.333L150.023 36.6509C149.932 36.6521 149.841 36.6706 149.757 36.7053C149.674 36.7401 149.598 36.7904 149.535 36.8532C149.446 36.9448 149.389 37.0609 149.374 37.1846C149.359 37.3083 149.386 37.4333 149.451 37.5416C149.949 38.3408 150.653 39.008 151.5 39.4805C151.88 39.6963 152.29 39.8616 152.719 39.9718C152.808 39.9955 152.9 40.0165 152.995 40.0349C156.421 40.73 159.953 40.8298 163.417 40.3291C163.213 40.9726 163.134 41.6455 163.185 42.3153C163.297 43.1534 163.818 43.8444 164.516 44.0756C164.674 44.126 164.836 44.1629 165.001 44.1859C165.16 44.2101 165.315 44.2461 165.467 44.2937C165.692 44.3711 165.89 44.5029 166.043 44.6758C166.196 44.8488 166.298 45.0566 166.338 45.2785C166.378 45.5003 166.356 45.7282 166.272 45.9391C166.189 46.15 166.048 46.3364 165.864 46.4795C165.864 46.4795 166.595 47.0497 166.687 47.0208C167.046 46.8713 167.347 46.6195 167.546 46.3009C168.938 44.4145 169.611 41.9028 169.544 38.8316Z" fill="#2F2E41"/>
</g>
<defs>
<clipPath id="clip0_54_25819">
<rect width="216" height="176" fill="white" transform="translate(0 0.767578)"/>
</clipPath>
</defs>
</svg>
