<svg width="230" height="177" viewBox="0 0 230 177" fill="none" xmlns="http://www.w3.org/2000/svg">
<g clip-path="url(#clip0_54_25985)">
<path d="M135.348 129.883C167.223 129.883 193.063 100.98 193.063 65.3255C193.063 29.6711 167.223 0.767578 135.348 0.767578C103.473 0.767578 77.6328 29.6711 77.6328 65.3255C77.6328 100.98 103.473 129.883 135.348 129.883Z" fill="#F2F2F2"/>
<path d="M32.5511 156.855C34.1188 157.472 35.802 157.626 37.4385 157.304C39.0751 156.981 40.6098 156.193 41.8948 155.014C45.1675 151.942 46.1936 146.88 47.0285 142.193L49.4979 128.329L44.3279 132.311C40.6099 135.175 36.8082 138.13 34.2339 142.278C31.6596 146.425 30.5359 152.087 32.6043 156.575" fill="#E6E6E6"/>
<path d="M32.9928 173.64C32.4696 169.377 31.9315 165.058 32.2985 160.749C32.6245 156.922 33.6683 153.184 35.7934 150.12C36.9213 148.496 38.2939 147.105 39.8492 146.009C40.2548 145.722 40.6281 146.441 40.2243 146.726C37.5331 148.629 35.4515 151.438 34.2797 154.749C32.9854 158.431 32.7776 162.445 33.0006 166.357C33.1355 168.722 33.4214 171.072 33.7094 173.419C33.7321 173.525 33.7179 173.637 33.6698 173.732C33.6216 173.827 33.543 173.898 33.4499 173.93C33.3549 173.959 33.2536 173.945 33.1681 173.89C33.0825 173.836 33.0195 173.746 32.9928 173.64Z" fill="#F2F2F2"/>
<path d="M67.6221 167.768C68.234 168.577 69.0218 169.195 69.9095 169.564C70.7973 169.933 71.7551 170.041 72.6906 169.875C75.0915 169.42 76.9004 167.262 78.5188 165.227L83.3056 159.207L79.7375 159.497C77.1715 159.707 74.5407 159.934 72.2061 161.143C69.8715 162.352 67.8599 164.774 67.7203 167.648" fill="#E6E6E6"/>
<path d="M63.5147 176.163C64.3561 173.898 65.2044 171.601 66.4953 169.601C67.6418 167.824 69.1183 166.323 70.9529 165.501C71.9259 165.067 72.9593 164.825 74.0065 164.788C74.2797 164.778 74.278 165.252 74.006 165.262C72.1925 165.329 70.445 166.039 69.0156 167.29C67.4304 168.683 66.2938 170.589 65.3955 172.584C64.8522 173.791 64.3872 175.038 63.924 176.285C63.9078 176.345 63.872 176.395 63.8239 176.426C63.7757 176.457 63.7188 176.467 63.6647 176.453C63.6106 176.436 63.5645 176.397 63.5364 176.342C63.5084 176.288 63.5006 176.223 63.5147 176.163H63.5147Z" fill="#F2F2F2"/>
<path d="M38.0332 166.096C38.7056 167.239 39.6298 168.169 40.7168 168.796C41.8038 169.424 43.0169 169.728 44.2394 169.679C47.381 169.512 50.0002 167.059 52.3579 164.731L59.3316 157.843L54.7162 157.596C51.3971 157.419 47.9923 157.253 44.8309 158.398C41.6695 159.543 38.754 162.298 38.1759 165.958" fill="#E6E6E6"/>
<path d="M31.5147 176.091C34.0333 171.106 36.9547 165.566 42.1746 163.795C43.626 163.304 45.1479 163.129 46.6583 163.277C47.1344 163.323 47.0155 164.144 46.5403 164.098C44.0085 163.863 41.4816 164.611 39.385 166.216C37.3675 167.752 35.7966 169.887 34.4671 172.152C33.6527 173.539 32.9232 174.985 32.1936 176.429C31.9604 176.891 31.2788 176.558 31.5147 176.091Z" fill="#F2F2F2"/>
<path d="M140.283 91.0049C145.291 87.9262 151.523 88.5441 156.919 90.649C162.315 92.7539 167.204 96.2024 172.444 98.753C188.456 106.547 207.754 105.291 222.849 95.4704C224.276 99.1848 222.745 103.434 221.062 107.012C219.38 110.591 217.463 114.469 218.155 118.437C219.042 123.515 223.801 126.56 225.73 131.263C227.561 135.727 226.578 140.969 225.173 145.622C223.769 150.276 221.946 154.964 222.185 159.868C222.424 164.772 225.609 169.958 230 169.962C223.493 171.093 216.858 172.225 210.355 171.066C203.852 169.907 197.383 166.059 194.363 159.514C192.854 156.242 192.272 152.48 190.539 149.35C187.587 144.019 181.921 141.512 176.575 139.622C171.23 137.733 165.509 135.913 161.745 131.265C158.159 126.837 157.023 120.668 155.123 115.084C151.923 105.736 146.365 97.6285 139.124 91.7464" fill="#112546"/>
<path d="M146.086 67.8036C144.328 66.8888 142.169 66.589 140.381 67.439C138.592 68.289 137.372 70.4678 137.951 72.396C138.213 73.2703 138.81 74.1301 138.578 75.013C138.399 75.6926 137.774 76.1413 137.16 76.4604C136.547 76.7794 135.875 77.0476 135.432 77.5857C134.988 78.1238 134.895 79.0501 135.45 79.4674C135.632 79.6049 135.86 79.6701 136.038 79.815C136.189 79.9521 136.297 80.1386 136.349 80.3483C136.401 80.558 136.393 80.7805 136.326 80.9848C136.178 81.3959 135.934 81.7549 135.62 82.024C134.991 82.6311 134.159 83.3258 134.354 84.1876C134.427 84.4179 134.548 84.6253 134.707 84.792C134.867 84.9588 135.06 85.0801 135.27 85.1457C135.707 85.2866 136.16 85.3535 136.614 85.3441L155.184 85.9985C155.797 86.05 156.413 86.0115 157.017 85.8839C157.311 85.824 157.59 85.697 157.838 85.5108C158.086 85.3247 158.296 85.0833 158.457 84.8019C158.813 84.0657 158.579 83.1587 158.14 82.4712C157.701 81.7837 157.079 81.2414 156.566 80.6101C156.052 79.9788 155.632 79.1908 155.723 78.3748C155.795 77.7217 156.18 77.1572 156.457 76.5637C156.733 75.9703 156.894 75.2287 156.536 74.6827C156.031 73.9134 154.82 73.983 154.246 73.2661C153.813 72.7251 153.897 71.9463 153.854 71.2486C153.75 69.5705 152.712 67.9857 151.233 67.2498C150.481 66.8887 149.663 66.7329 148.847 66.7951C148.031 66.8573 147.239 67.1357 146.538 67.6074L146.086 67.8036Z" fill="#2F2E41"/>
<path d="M134.352 173.134L131.443 172.157L133.43 159.144L137.722 160.586L134.352 173.134Z" fill="#A0616A"/>
<path d="M134.246 176.537L124.868 173.385L124.904 173.252C125.048 172.716 125.285 172.217 125.601 171.783C125.918 171.35 126.307 170.99 126.748 170.725C127.189 170.459 127.672 170.294 128.17 170.237C128.668 170.181 129.171 170.235 129.65 170.396L129.651 170.396L135.378 172.321L134.246 176.537Z" fill="#2F2E41"/>
<path d="M161.796 173.244L158.759 173.244L157.314 160.142L161.796 160.142L161.796 173.244Z" fill="#A0616A"/>
<path d="M162.57 176.537L152.778 176.536V176.398C152.778 175.838 152.877 175.284 153.068 174.766C153.26 174.249 153.541 173.779 153.895 173.383C154.249 172.988 154.669 172.673 155.131 172.459C155.593 172.245 156.089 172.135 156.59 172.135H156.59L162.57 172.135L162.57 176.537Z" fill="#2F2E41"/>
<path d="M157.581 163.334C157.316 163.334 157.059 163.228 156.858 163.036C156.656 162.844 156.522 162.577 156.481 162.285L151.971 130.822C151.942 130.613 151.852 130.422 151.716 130.275C151.579 130.129 151.404 130.037 151.217 130.012C151.03 129.987 150.84 130.032 150.677 130.138C150.514 130.245 150.387 130.408 150.315 130.603L138.633 162.061C138.524 162.351 138.321 162.585 138.065 162.716C137.809 162.846 137.518 162.864 137.251 162.766L133.031 161.192C132.769 161.095 132.548 160.892 132.412 160.623C132.276 160.353 132.235 160.036 132.297 159.735L141.87 112.349C141.917 112.121 142.02 111.912 142.168 111.746C142.315 111.58 142.502 111.463 142.705 111.41L155.544 108.076C155.702 108.036 155.866 108.034 156.024 108.071C156.183 108.108 156.332 108.182 156.463 108.289C164.917 115.16 164.203 137.609 162.627 161.985C162.608 162.29 162.488 162.577 162.292 162.79C162.096 163.003 161.837 163.128 161.564 163.142L157.63 163.333C157.613 163.334 157.597 163.334 157.581 163.334Z" fill="#2F2E41"/>
<path d="M146.772 85.8374C150.132 85.8374 152.856 82.7906 152.856 79.0322C152.856 75.2738 150.132 72.2271 146.772 72.2271C143.412 72.2271 140.688 75.2738 140.688 79.0322C140.688 82.7906 143.412 85.8374 146.772 85.8374Z" fill="#A0616A"/>
<path d="M147.035 114.303C145.575 114.293 144.135 113.92 142.819 113.213L142.773 113.189L142.755 113.137L137.298 97.323L137.195 94.5752C137.16 93.6564 137.298 92.7395 137.599 91.8838C137.9 91.028 138.358 90.2523 138.944 89.6065C139.529 88.9608 140.229 88.4594 140.998 88.1345C141.767 87.8097 142.589 87.6686 143.41 87.7204L149.203 88.0854C150.699 88.1806 152.107 88.9101 153.14 90.1254C154.172 91.3408 154.752 92.9506 154.761 94.6272C154.911 94.9506 155.98 97.4788 153.886 99.8543C153.807 100.395 153.075 106.018 155.839 109.11L155.917 109.197L155.849 109.294C155.805 109.357 152.255 114.302 147.035 114.303Z" fill="#3F3D56"/>
<path d="M155.17 115.496C155.512 115.357 155.823 115.136 156.081 114.848C156.339 114.561 156.537 114.213 156.661 113.83C156.786 113.448 156.834 113.039 156.802 112.633C156.771 112.227 156.66 111.834 156.477 111.482L162.263 103.989L157.702 103.325L152.907 110.542C152.397 110.924 152.031 111.501 151.877 112.165C151.723 112.829 151.792 113.533 152.071 114.144C152.35 114.754 152.82 115.229 153.391 115.478C153.962 115.728 154.595 115.734 155.17 115.496Z" fill="#A0616A"/>
<path d="M158.788 109.713C158.571 109.713 158.358 109.641 158.177 109.507L155.315 107.408C155.075 107.232 154.904 106.959 154.84 106.646C154.775 106.333 154.821 106.004 154.969 105.728L157.04 101.834C157.152 101.624 157.223 101.389 157.249 101.145C157.274 100.902 157.253 100.655 157.187 100.422C157.121 100.188 157.011 99.9724 156.865 99.7894C156.72 99.6064 156.541 99.4599 156.341 99.3597L150.389 96.3749C149.657 96.0032 149.06 95.3645 148.695 94.5634C148.33 93.7623 148.218 92.8462 148.38 91.9653C148.491 91.3712 148.723 90.8139 149.058 90.3366C149.394 89.8593 149.823 89.475 150.313 89.2135C150.802 88.9521 151.339 88.8205 151.882 88.829C152.424 88.8375 152.958 88.986 153.441 89.2628L162.47 94.4381C163.079 94.7873 163.614 95.2795 164.037 95.8812C164.46 96.4829 164.762 97.1798 164.922 97.9242C165.082 98.6685 165.097 99.4428 164.965 100.194C164.832 100.945 164.556 101.655 164.156 102.276L159.692 109.195C159.589 109.355 159.453 109.486 159.296 109.576C159.139 109.666 158.965 109.713 158.788 109.713Z" fill="#3F3D56"/>
<path d="M140.549 78.0649C142.47 77.8923 144.065 75.7454 143.865 73.601C143.843 74.4849 144.111 75.3472 144.62 76.0239C145.129 76.7006 145.843 77.1444 146.625 77.271C147.506 77.3797 148.472 77.0814 149.24 77.5787C150.089 78.1295 150.361 79.4672 151.246 79.9429C152.101 80.4026 153.188 79.7757 153.61 78.8254C154.033 77.8751 153.929 76.7335 153.649 75.7194C153.25 74.2733 152.522 72.9674 151.538 71.9287C150.554 70.89 149.346 70.1539 148.032 69.792C146.719 69.4301 145.343 69.4547 144.04 69.8634C142.738 70.2721 141.552 71.051 140.597 72.1244C139.79 73.0333 139.148 74.1917 139.044 75.4681C138.94 76.7445 139.469 78.1295 140.494 78.7029L140.549 78.0649Z" fill="#2F2E41"/>
<path d="M126.394 59.2142C126.715 59.4075 126.994 59.677 127.211 60.0039C127.428 60.3307 127.579 60.7068 127.652 61.1058C127.726 61.5048 127.72 61.9169 127.635 62.3131C127.551 62.7093 127.39 63.08 127.163 63.399L131.909 71.7569L127.31 71.6687L123.509 63.7455C123.055 63.2845 122.768 62.6533 122.702 61.9715C122.636 61.2897 122.796 60.6046 123.152 60.046C123.508 59.4875 124.034 59.0943 124.632 58.941C125.23 58.7877 125.857 58.8849 126.394 59.2142V59.2142Z" fill="#A0616A"/>
<path d="M130.22 65.1658L136.332 81.3196L142.739 93.4731C143.01 93.9862 143.173 94.5613 143.215 95.155C143.258 95.7487 143.179 96.3455 142.986 96.9003C142.792 97.4551 142.488 97.9534 142.097 98.3576C141.706 98.7618 141.238 99.0613 140.728 99.2335C139.919 99.5019 139.052 99.438 138.282 99.0534C137.512 98.6687 136.89 97.9888 136.529 97.1363L124.179 67.6191C124.112 67.4587 124.076 67.2842 124.074 67.1072C124.072 66.9302 124.104 66.7547 124.167 66.5924C124.23 66.4301 124.324 66.2847 124.441 66.1659C124.559 66.0472 124.697 65.9578 124.848 65.9036L128.852 64.4648C128.928 64.4374 129.006 64.4191 129.086 64.4101C129.322 64.3834 129.56 64.4424 129.764 64.5785C129.969 64.7145 130.128 64.9204 130.22 65.1658Z" fill="#3F3D56"/>
<path d="M187.512 176.768H0.247704C0.182009 176.768 0.119004 176.738 0.0725508 176.686C0.0260972 176.634 0 176.564 0 176.49C0 176.417 0.0260972 176.346 0.0725508 176.295C0.119004 176.243 0.182009 176.213 0.247704 176.213H187.512C187.578 176.213 187.641 176.243 187.687 176.295C187.734 176.346 187.76 176.417 187.76 176.49C187.76 176.564 187.734 176.634 187.687 176.686C187.641 176.738 187.578 176.768 187.512 176.768Z" fill="#CCCCCC"/>
<path d="M148.092 30.7502V53.4702C148.092 53.5437 148.066 53.6141 148.02 53.6661C147.973 53.7181 147.91 53.7472 147.844 53.7472C147.779 53.7472 147.716 53.7181 147.669 53.6661C147.623 53.6141 147.597 53.5437 147.597 53.4702V30.7502C147.597 30.6767 147.623 30.6063 147.669 30.5543C147.716 30.5023 147.779 30.4731 147.844 30.4731C147.91 30.4731 147.973 30.5023 148.02 30.5543C148.066 30.6063 148.092 30.6767 148.092 30.7502Z" fill="#CCCCCC"/>
<path d="M169.6 50.0247L162.593 57.8615C162.547 57.9133 162.484 57.9423 162.418 57.9422C162.353 57.9421 162.29 57.9129 162.243 57.8611C162.197 57.8092 162.171 57.7388 162.171 57.6654C162.171 57.5921 162.197 57.5217 162.243 57.4697L169.249 49.6329C169.272 49.607 169.299 49.5865 169.33 49.5725C169.36 49.5585 169.392 49.5513 169.424 49.5513C169.457 49.5512 169.489 49.5584 169.519 49.5723C169.55 49.5862 169.577 49.6067 169.6 49.6324C169.623 49.6582 169.641 49.6888 169.654 49.7225C169.666 49.7561 169.672 49.7922 169.672 49.8287C169.672 49.8651 169.666 49.9012 169.653 49.9348C169.641 49.9684 169.623 49.999 169.6 50.0247Z" fill="#CCCCCC"/>
<path d="M126.09 50.0247L133.096 57.8615C133.142 57.9135 133.205 57.9426 133.271 57.9427C133.337 57.9427 133.4 57.9135 133.446 57.8615C133.492 57.8095 133.519 57.7391 133.519 57.6656C133.519 57.5921 133.492 57.5216 133.446 57.4697L126.44 49.6329C126.417 49.607 126.39 49.5865 126.359 49.5725C126.329 49.5585 126.297 49.5513 126.265 49.5513C126.232 49.5512 126.2 49.5584 126.17 49.5723C126.14 49.5862 126.112 49.6067 126.089 49.6324C126.066 49.6582 126.048 49.6888 126.035 49.7225C126.023 49.7561 126.017 49.7922 126.017 49.8287C126.017 49.8651 126.023 49.9012 126.036 49.9348C126.048 49.9684 126.066 49.999 126.09 50.0247Z" fill="#CCCCCC"/>
</g>
<defs>
<clipPath id="clip0_54_25985">
<rect width="230" height="176" fill="white" transform="translate(0 0.767578)"/>
</clipPath>
</defs>
</svg>
