<svg width="41" height="41" viewBox="0 0 41 41" fill="none" xmlns="http://www.w3.org/2000/svg">
<path d="M39.1667 11.3643C38.9402 10.5564 38.499 9.82491 37.8901 9.24767C37.2639 8.65267 36.4964 8.22706 35.6601 8.011C32.5301 7.186 19.9901 7.186 19.9901 7.186C14.7623 7.12652 9.53577 7.38812 4.34005 7.96933C3.5037 8.20135 2.73766 8.63648 2.11005 9.236C1.49339 9.82933 1.04672 10.561 0.813385 11.3627C0.252874 14.3822 -0.0194612 17.4482 5.20763e-05 20.5193C-0.0199479 23.5877 0.251719 26.6527 0.813385 29.676C1.04172 30.4743 1.48672 31.2027 2.10505 31.791C2.72339 32.3793 3.49339 32.8043 4.34005 33.0293C7.51172 33.8527 19.9901 33.8527 19.9901 33.8527C25.2245 33.9122 30.4577 33.6506 35.6601 33.0693C36.4964 32.8533 37.2639 32.4277 37.8901 31.8327C38.4988 31.2555 38.9395 30.524 39.1651 29.716C39.7402 26.6976 40.0199 23.6303 40.0001 20.5577C40.0433 17.472 39.764 14.3903 39.1667 11.3627V11.3643ZM16.0034 26.226V14.8143L26.4367 20.521L16.0034 26.226Z" fill="black"/>
</svg>
